<svg xmlns="http://www.w3.org/2000/svg" xmlns:xlink="http://www.w3.org/1999/xlink" width="162.623" height="364.359" viewBox="0 0 162.623 364.359">
  <defs>
    <clipPath id="clip-path">
      <path id="Path_33" data-name="Path 33" d="M1007.991-395.4a4.616,4.616,0,0,1-4.632-4.6,4.616,4.616,0,0,1,4.632-4.6,4.616,4.616,0,0,1,4.632,4.6,4.616,4.616,0,0,1-4.632,4.6Zm0-32.228a4.616,4.616,0,0,1-4.632-4.6,4.616,4.616,0,0,1,4.632-4.6,4.616,4.616,0,0,1,4.632,4.6,4.616,4.616,0,0,1-4.632,4.6Zm0-32.228a4.616,4.616,0,0,1-4.632-4.6,4.616,4.616,0,0,1,4.632-4.6,4.616,4.616,0,0,1,4.632,4.6,4.616,4.616,0,0,1-4.632,4.6Zm0-32.228a4.616,4.616,0,0,1-4.632-4.6,4.616,4.616,0,0,1,4.632-4.6,4.616,4.616,0,0,1,4.632,4.6,4.616,4.616,0,0,1-4.632,4.6Zm0-32.228a4.616,4.616,0,0,1-4.632-4.6,4.616,4.616,0,0,1,4.632-4.6,4.616,4.616,0,0,1,4.632,4.6A4.616,4.616,0,0,1,1007.991-524.317Zm0-32.228a4.616,4.616,0,0,1-4.632-4.6,4.616,4.616,0,0,1,4.632-4.6,4.616,4.616,0,0,1,4.632,4.6A4.616,4.616,0,0,1,1007.991-556.545ZM977.582-395.4a4.616,4.616,0,0,1-4.632-4.6,4.616,4.616,0,0,1,4.632-4.6,4.616,4.616,0,0,1,4.632,4.6,4.616,4.616,0,0,1-4.628,4.6Zm0-32.228a4.616,4.616,0,0,1-4.632-4.6,4.616,4.616,0,0,1,4.632-4.6,4.616,4.616,0,0,1,4.632,4.6,4.616,4.616,0,0,1-4.628,4.605Zm0-32.228a4.616,4.616,0,0,1-4.632-4.6,4.616,4.616,0,0,1,4.632-4.6,4.616,4.616,0,0,1,4.632,4.6,4.616,4.616,0,0,1-4.628,4.6Zm0-32.228a4.616,4.616,0,0,1-4.632-4.6,4.616,4.616,0,0,1,4.632-4.6,4.616,4.616,0,0,1,4.632,4.6,4.616,4.616,0,0,1-4.628,4.6Zm0-32.228a4.616,4.616,0,0,1-4.632-4.6,4.616,4.616,0,0,1,4.632-4.6,4.616,4.616,0,0,1,4.632,4.6,4.616,4.616,0,0,1-4.628,4.6Zm0-32.228a4.616,4.616,0,0,1-4.632-4.6,4.616,4.616,0,0,1,4.632-4.6,4.616,4.616,0,0,1,4.632,4.6,4.616,4.616,0,0,1-4.628,4.6ZM947.173-395.4a4.616,4.616,0,0,1-4.631-4.6,4.616,4.616,0,0,1,4.631-4.6,4.616,4.616,0,0,1,4.632,4.6,4.616,4.616,0,0,1-4.628,4.6Zm0-32.228a4.616,4.616,0,0,1-4.631-4.6,4.616,4.616,0,0,1,4.631-4.6,4.616,4.616,0,0,1,4.632,4.6,4.616,4.616,0,0,1-4.628,4.605Zm0-32.228a4.616,4.616,0,0,1-4.631-4.6,4.616,4.616,0,0,1,4.631-4.6,4.616,4.616,0,0,1,4.632,4.6,4.616,4.616,0,0,1-4.628,4.6Zm0-32.228a4.616,4.616,0,0,1-4.631-4.6,4.616,4.616,0,0,1,4.631-4.6,4.616,4.616,0,0,1,4.632,4.6,4.616,4.616,0,0,1-4.628,4.6Zm0-32.228a4.616,4.616,0,0,1-4.631-4.6,4.616,4.616,0,0,1,4.631-4.6,4.616,4.616,0,0,1,4.632,4.6,4.616,4.616,0,0,1-4.628,4.6Zm0-32.228a4.616,4.616,0,0,1-4.631-4.6,4.616,4.616,0,0,1,4.631-4.6,4.616,4.616,0,0,1,4.632,4.6,4.616,4.616,0,0,1-4.628,4.6ZM915.441-395.4a4.616,4.616,0,0,1-4.632-4.6,4.616,4.616,0,0,1,4.632-4.6,4.616,4.616,0,0,1,4.632,4.6,4.616,4.616,0,0,1-4.628,4.6Zm0-32.228a4.616,4.616,0,0,1-4.632-4.6,4.616,4.616,0,0,1,4.632-4.6,4.616,4.616,0,0,1,4.632,4.6,4.616,4.616,0,0,1-4.628,4.605Zm0-32.228a4.616,4.616,0,0,1-4.632-4.6,4.616,4.616,0,0,1,4.632-4.6,4.616,4.616,0,0,1,4.632,4.6,4.616,4.616,0,0,1-4.628,4.6Zm0-32.228a4.616,4.616,0,0,1-4.632-4.6,4.616,4.616,0,0,1,4.632-4.6,4.616,4.616,0,0,1,4.632,4.6,4.616,4.616,0,0,1-4.628,4.6Zm0-32.228a4.616,4.616,0,0,1-4.632-4.6,4.616,4.616,0,0,1,4.632-4.6,4.616,4.616,0,0,1,4.632,4.6,4.616,4.616,0,0,1-4.628,4.6Zm0-32.228a4.616,4.616,0,0,1-4.632-4.6,4.616,4.616,0,0,1,4.632-4.6,4.616,4.616,0,0,1,4.632,4.6,4.616,4.616,0,0,1-4.628,4.6ZM885.033-395.4a4.616,4.616,0,0,1-4.632-4.6,4.616,4.616,0,0,1,4.632-4.6,4.616,4.616,0,0,1,4.632,4.6,4.616,4.616,0,0,1-4.628,4.6Zm0-32.228a4.616,4.616,0,0,1-4.632-4.6,4.616,4.616,0,0,1,4.632-4.6,4.616,4.616,0,0,1,4.632,4.6,4.616,4.616,0,0,1-4.628,4.605Zm0-32.228a4.616,4.616,0,0,1-4.632-4.6,4.616,4.616,0,0,1,4.632-4.6,4.616,4.616,0,0,1,4.632,4.6,4.616,4.616,0,0,1-4.628,4.6Zm0-32.228a4.616,4.616,0,0,1-4.632-4.6,4.616,4.616,0,0,1,4.632-4.6,4.616,4.616,0,0,1,4.632,4.6,4.616,4.616,0,0,1-4.628,4.6Zm0-32.228a4.616,4.616,0,0,1-4.632-4.6,4.616,4.616,0,0,1,4.632-4.6,4.616,4.616,0,0,1,4.632,4.6,4.616,4.616,0,0,1-4.628,4.6Zm0-32.228a4.616,4.616,0,0,1-4.632-4.6,4.616,4.616,0,0,1,4.632-4.6,4.616,4.616,0,0,1,4.632,4.6,4.616,4.616,0,0,1-4.628,4.6ZM854.631-395.4a4.616,4.616,0,0,1-4.632-4.6,4.616,4.616,0,0,1,4.632-4.6,4.616,4.616,0,0,1,4.632,4.6,4.616,4.616,0,0,1-4.632,4.6Zm0-32.228a4.616,4.616,0,0,1-4.632-4.6,4.616,4.616,0,0,1,4.632-4.6,4.616,4.616,0,0,1,4.632,4.6,4.616,4.616,0,0,1-4.632,4.6Zm0-32.228a4.616,4.616,0,0,1-4.632-4.6,4.616,4.616,0,0,1,4.632-4.6,4.616,4.616,0,0,1,4.632,4.6,4.616,4.616,0,0,1-4.632,4.6Zm0-32.228a4.616,4.616,0,0,1-4.632-4.6,4.616,4.616,0,0,1,4.632-4.6,4.616,4.616,0,0,1,4.632,4.6,4.616,4.616,0,0,1-4.632,4.6Zm0-32.228a4.616,4.616,0,0,1-4.632-4.6,4.616,4.616,0,0,1,4.632-4.6,4.616,4.616,0,0,1,4.632,4.6,4.616,4.616,0,0,1-4.632,4.6Zm0-32.228a4.616,4.616,0,0,1-4.632-4.6,4.616,4.616,0,0,1,4.632-4.6,4.616,4.616,0,0,1,4.632,4.6,4.616,4.616,0,0,1-4.632,4.6Zm153.36,355.15a4.616,4.616,0,0,1-4.632-4.6,4.616,4.616,0,0,1,4.632-4.6,4.616,4.616,0,0,1,4.632,4.6,4.616,4.616,0,0,1-4.632,4.6Zm0-32.228a4.616,4.616,0,0,1-4.632-4.6,4.616,4.616,0,0,1,4.632-4.6,4.616,4.616,0,0,1,4.632,4.6A4.616,4.616,0,0,1,1007.991-233.623Zm0-32.228a4.616,4.616,0,0,1-4.632-4.6,4.616,4.616,0,0,1,4.632-4.6,4.616,4.616,0,0,1,4.632,4.6A4.616,4.616,0,0,1,1007.991-265.851Zm0-32.228a4.616,4.616,0,0,1-4.632-4.6,4.616,4.616,0,0,1,4.632-4.6,4.616,4.616,0,0,1,4.632,4.6,4.616,4.616,0,0,1-4.632,4.6Zm0-32.228a4.616,4.616,0,0,1-4.632-4.6,4.616,4.616,0,0,1,4.632-4.6,4.617,4.617,0,0,1,4.632,4.6,4.616,4.616,0,0,1-4.632,4.6Zm0-32.228a4.616,4.616,0,0,1-4.632-4.6,4.616,4.616,0,0,1,4.632-4.6,4.616,4.616,0,0,1,4.632,4.6A4.616,4.616,0,0,1,1007.991-362.536ZM977.586-201.4a4.616,4.616,0,0,1-4.632-4.6,4.616,4.616,0,0,1,4.632-4.6,4.616,4.616,0,0,1,4.632,4.6,4.616,4.616,0,0,1-4.632,4.6Zm0-32.228a4.616,4.616,0,0,1-4.632-4.6,4.616,4.616,0,0,1,4.632-4.6,4.616,4.616,0,0,1,4.632,4.6,4.616,4.616,0,0,1-4.632,4.6Zm0-32.228a4.616,4.616,0,0,1-4.632-4.6,4.616,4.616,0,0,1,4.632-4.6,4.616,4.616,0,0,1,4.632,4.6,4.616,4.616,0,0,1-4.632,4.6Zm0-32.228a4.616,4.616,0,0,1-4.632-4.6,4.616,4.616,0,0,1,4.632-4.6,4.616,4.616,0,0,1,4.632,4.6,4.616,4.616,0,0,1-4.632,4.6Zm0-32.228a4.616,4.616,0,0,1-4.632-4.6,4.616,4.616,0,0,1,4.632-4.6,4.617,4.617,0,0,1,4.632,4.6,4.616,4.616,0,0,1-4.632,4.6Zm0-32.228a4.616,4.616,0,0,1-4.632-4.6,4.616,4.616,0,0,1,4.632-4.6,4.616,4.616,0,0,1,4.632,4.6,4.616,4.616,0,0,1-4.632,4.6ZM947.177-201.4a4.616,4.616,0,0,1-4.632-4.6,4.616,4.616,0,0,1,4.632-4.6,4.616,4.616,0,0,1,4.632,4.6,4.616,4.616,0,0,1-4.632,4.6Zm0-32.228a4.616,4.616,0,0,1-4.632-4.6,4.616,4.616,0,0,1,4.632-4.6,4.616,4.616,0,0,1,4.632,4.6,4.616,4.616,0,0,1-4.632,4.6Zm0-32.228a4.616,4.616,0,0,1-4.632-4.6,4.616,4.616,0,0,1,4.632-4.6,4.616,4.616,0,0,1,4.632,4.6,4.616,4.616,0,0,1-4.632,4.6Zm0-32.228a4.616,4.616,0,0,1-4.632-4.6,4.616,4.616,0,0,1,4.632-4.6,4.616,4.616,0,0,1,4.632,4.6,4.616,4.616,0,0,1-4.632,4.6Zm0-32.228a4.616,4.616,0,0,1-4.632-4.6,4.616,4.616,0,0,1,4.632-4.6,4.616,4.616,0,0,1,4.632,4.6,4.616,4.616,0,0,1-4.632,4.6Zm0-32.228a4.616,4.616,0,0,1-4.632-4.6,4.616,4.616,0,0,1,4.632-4.6,4.616,4.616,0,0,1,4.632,4.6,4.616,4.616,0,0,1-4.632,4.6ZM915.445-201.4a4.616,4.616,0,0,1-4.632-4.6,4.616,4.616,0,0,1,4.632-4.6,4.616,4.616,0,0,1,4.632,4.6,4.616,4.616,0,0,1-4.632,4.6Zm0-32.228a4.616,4.616,0,0,1-4.632-4.6,4.616,4.616,0,0,1,4.632-4.6,4.616,4.616,0,0,1,4.632,4.6A4.616,4.616,0,0,1,915.445-233.623Zm0-32.228a4.616,4.616,0,0,1-4.632-4.6,4.616,4.616,0,0,1,4.632-4.6,4.616,4.616,0,0,1,4.632,4.6A4.616,4.616,0,0,1,915.445-265.851Zm0-32.228a4.616,4.616,0,0,1-4.632-4.6,4.616,4.616,0,0,1,4.632-4.6,4.616,4.616,0,0,1,4.632,4.6,4.616,4.616,0,0,1-4.632,4.6Zm0-32.228a4.616,4.616,0,0,1-4.632-4.6,4.616,4.616,0,0,1,4.632-4.6,4.616,4.616,0,0,1,4.632,4.6,4.616,4.616,0,0,1-4.632,4.6Zm0-32.228a4.616,4.616,0,0,1-4.632-4.6,4.616,4.616,0,0,1,4.632-4.6,4.616,4.616,0,0,1,4.632,4.6A4.616,4.616,0,0,1,915.445-362.536ZM885.037-201.4a4.616,4.616,0,0,1-4.632-4.6,4.616,4.616,0,0,1,4.632-4.6,4.616,4.616,0,0,1,4.632,4.6,4.616,4.616,0,0,1-4.632,4.6Zm0-32.228a4.616,4.616,0,0,1-4.632-4.6,4.616,4.616,0,0,1,4.632-4.6,4.616,4.616,0,0,1,4.632,4.6A4.616,4.616,0,0,1,885.037-233.623Zm0-32.228a4.616,4.616,0,0,1-4.632-4.6,4.616,4.616,0,0,1,4.632-4.6,4.616,4.616,0,0,1,4.632,4.6A4.616,4.616,0,0,1,885.037-265.851Zm0-32.228a4.616,4.616,0,0,1-4.632-4.6,4.616,4.616,0,0,1,4.632-4.6,4.616,4.616,0,0,1,4.632,4.6,4.616,4.616,0,0,1-4.632,4.6Zm0-32.228a4.616,4.616,0,0,1-4.632-4.6,4.616,4.616,0,0,1,4.632-4.6,4.617,4.617,0,0,1,4.632,4.6,4.616,4.616,0,0,1-4.632,4.6Zm0-32.228a4.616,4.616,0,0,1-4.632-4.6,4.616,4.616,0,0,1,4.632-4.6,4.616,4.616,0,0,1,4.632,4.6A4.616,4.616,0,0,1,885.037-362.536ZM854.631-201.4A4.616,4.616,0,0,1,850-206a4.616,4.616,0,0,1,4.632-4.6,4.616,4.616,0,0,1,4.632,4.6,4.616,4.616,0,0,1-4.632,4.6Zm0-32.228a4.616,4.616,0,0,1-4.632-4.6,4.616,4.616,0,0,1,4.632-4.6,4.616,4.616,0,0,1,4.632,4.6,4.616,4.616,0,0,1-4.632,4.6Zm0-32.228a4.616,4.616,0,0,1-4.632-4.6,4.616,4.616,0,0,1,4.632-4.6,4.616,4.616,0,0,1,4.632,4.6,4.616,4.616,0,0,1-4.632,4.6Zm0-32.228a4.616,4.616,0,0,1-4.632-4.6,4.616,4.616,0,0,1,4.632-4.6,4.616,4.616,0,0,1,4.632,4.6,4.616,4.616,0,0,1-4.632,4.6Zm0-32.228a4.616,4.616,0,0,1-4.632-4.6,4.616,4.616,0,0,1,4.632-4.6,4.616,4.616,0,0,1,4.632,4.6,4.616,4.616,0,0,1-4.632,4.6Zm0-32.228a4.616,4.616,0,0,1-4.632-4.6,4.616,4.616,0,0,1,4.632-4.6,4.616,4.616,0,0,1,4.632,4.6,4.616,4.616,0,0,1-4.632,4.6Z" transform="translate(-850 565.754)" fill="#102733"/>
    </clipPath>
  </defs>
  <g id="Group_22" data-name="Group 22" clip-path="url(#clip-path)">
    <path id="Path_32" data-name="Path 32" d="M846.575-569.178h172.916v374.651H846.575Z" transform="translate(-851.721 564.032)" fill="#102733"/>
  </g>
</svg>
