<svg xmlns="http://www.w3.org/2000/svg" xmlns:xlink="http://www.w3.org/1999/xlink" width="288" height="176" viewBox="0 0 288 176">
  <defs>
    <clipPath id="clip-path">
      <rect width="288" height="176" fill="none"/>
    </clipPath>
  </defs>
  <g id="Repetir_cuadrícula_10" data-name="Repetir cuadrícula 10" clip-path="url(#clip-path)">
    <g transform="translate(-1371 -51)">
      <circle id="Elipse_4" data-name="Elipse 4" cx="2.5" cy="2.5" r="2.5" transform="translate(1371 51)" fill="#ef4c00"/>
    </g>
    <g transform="translate(-1344 -51)">
      <circle id="Elipse_4-2" data-name="Elipse 4" cx="2.5" cy="2.5" r="2.5" transform="translate(1371 51)" fill="#ef4c00"/>
    </g>
    <g transform="translate(-1317 -51)">
      <circle id="Elipse_4-3" data-name="Elipse 4" cx="2.5" cy="2.5" r="2.5" transform="translate(1371 51)" fill="#ef4c00"/>
    </g>
    <g transform="translate(-1290 -51)">
      <circle id="Elipse_4-4" data-name="Elipse 4" cx="2.5" cy="2.5" r="2.5" transform="translate(1371 51)" fill="#ef4c00"/>
    </g>
    <g transform="translate(-1263 -51)">
      <circle id="Elipse_4-5" data-name="Elipse 4" cx="2.5" cy="2.5" r="2.5" transform="translate(1371 51)" fill="#ef4c00"/>
    </g>
    <g transform="translate(-1236 -51)">
      <circle id="Elipse_4-6" data-name="Elipse 4" cx="2.5" cy="2.5" r="2.5" transform="translate(1371 51)" fill="#ef4c00"/>
    </g>
    <g transform="translate(-1209 -51)">
      <circle id="Elipse_4-7" data-name="Elipse 4" cx="2.5" cy="2.5" r="2.5" transform="translate(1371 51)" fill="#ef4c00"/>
    </g>
    <g transform="translate(-1182 -51)">
      <circle id="Elipse_4-8" data-name="Elipse 4" cx="2.5" cy="2.5" r="2.5" transform="translate(1371 51)" fill="#ef4c00"/>
    </g>
    <g transform="translate(-1155 -51)">
      <circle id="Elipse_4-9" data-name="Elipse 4" cx="2.5" cy="2.5" r="2.5" transform="translate(1371 51)" fill="#ef4c00"/>
    </g>
    <g transform="translate(-1128 -51)">
      <circle id="Elipse_4-10" data-name="Elipse 4" cx="2.5" cy="2.5" r="2.5" transform="translate(1371 51)" fill="#ef4c00"/>
    </g>
    <g transform="translate(-1101 -51)">
      <circle id="Elipse_4-11" data-name="Elipse 4" cx="2.5" cy="2.5" r="2.5" transform="translate(1371 51)" fill="#ef4c00"/>
    </g>
    <g transform="translate(-1371 -24)">
      <circle id="Elipse_4-12" data-name="Elipse 4" cx="2.5" cy="2.5" r="2.5" transform="translate(1371 51)" fill="#ef4c00"/>
    </g>
    <g transform="translate(-1344 -24)">
      <circle id="Elipse_4-13" data-name="Elipse 4" cx="2.5" cy="2.5" r="2.5" transform="translate(1371 51)" fill="#ef4c00"/>
    </g>
    <g transform="translate(-1317 -24)">
      <circle id="Elipse_4-14" data-name="Elipse 4" cx="2.5" cy="2.5" r="2.5" transform="translate(1371 51)" fill="#ef4c00"/>
    </g>
    <g transform="translate(-1290 -24)">
      <circle id="Elipse_4-15" data-name="Elipse 4" cx="2.5" cy="2.5" r="2.5" transform="translate(1371 51)" fill="#ef4c00"/>
    </g>
    <g transform="translate(-1263 -24)">
      <circle id="Elipse_4-16" data-name="Elipse 4" cx="2.5" cy="2.5" r="2.5" transform="translate(1371 51)" fill="#ef4c00"/>
    </g>
    <g transform="translate(-1236 -24)">
      <circle id="Elipse_4-17" data-name="Elipse 4" cx="2.5" cy="2.5" r="2.5" transform="translate(1371 51)" fill="#ef4c00"/>
    </g>
    <g transform="translate(-1209 -24)">
      <circle id="Elipse_4-18" data-name="Elipse 4" cx="2.5" cy="2.5" r="2.5" transform="translate(1371 51)" fill="#ef4c00"/>
    </g>
    <g transform="translate(-1182 -24)">
      <circle id="Elipse_4-19" data-name="Elipse 4" cx="2.5" cy="2.5" r="2.5" transform="translate(1371 51)" fill="#ef4c00"/>
    </g>
    <g transform="translate(-1155 -24)">
      <circle id="Elipse_4-20" data-name="Elipse 4" cx="2.5" cy="2.5" r="2.5" transform="translate(1371 51)" fill="#ef4c00"/>
    </g>
    <g transform="translate(-1128 -24)">
      <circle id="Elipse_4-21" data-name="Elipse 4" cx="2.5" cy="2.5" r="2.5" transform="translate(1371 51)" fill="#ef4c00"/>
    </g>
    <g transform="translate(-1101 -24)">
      <circle id="Elipse_4-22" data-name="Elipse 4" cx="2.5" cy="2.5" r="2.5" transform="translate(1371 51)" fill="#ef4c00"/>
    </g>
    <g transform="translate(-1371 3)">
      <circle id="Elipse_4-23" data-name="Elipse 4" cx="2.5" cy="2.5" r="2.5" transform="translate(1371 51)" fill="#ef4c00"/>
    </g>
    <g transform="translate(-1344 3)">
      <circle id="Elipse_4-24" data-name="Elipse 4" cx="2.5" cy="2.5" r="2.5" transform="translate(1371 51)" fill="#ef4c00"/>
    </g>
    <g transform="translate(-1317 3)">
      <circle id="Elipse_4-25" data-name="Elipse 4" cx="2.5" cy="2.5" r="2.5" transform="translate(1371 51)" fill="#ef4c00"/>
    </g>
    <g transform="translate(-1290 3)">
      <circle id="Elipse_4-26" data-name="Elipse 4" cx="2.5" cy="2.5" r="2.5" transform="translate(1371 51)" fill="#ef4c00"/>
    </g>
    <g transform="translate(-1263 3)">
      <circle id="Elipse_4-27" data-name="Elipse 4" cx="2.5" cy="2.5" r="2.5" transform="translate(1371 51)" fill="#ef4c00"/>
    </g>
    <g transform="translate(-1236 3)">
      <circle id="Elipse_4-28" data-name="Elipse 4" cx="2.5" cy="2.5" r="2.5" transform="translate(1371 51)" fill="#ef4c00"/>
    </g>
    <g transform="translate(-1209 3)">
      <circle id="Elipse_4-29" data-name="Elipse 4" cx="2.5" cy="2.5" r="2.5" transform="translate(1371 51)" fill="#ef4c00"/>
    </g>
    <g transform="translate(-1182 3)">
      <circle id="Elipse_4-30" data-name="Elipse 4" cx="2.5" cy="2.5" r="2.5" transform="translate(1371 51)" fill="#ef4c00"/>
    </g>
    <g transform="translate(-1155 3)">
      <circle id="Elipse_4-31" data-name="Elipse 4" cx="2.5" cy="2.5" r="2.5" transform="translate(1371 51)" fill="#ef4c00"/>
    </g>
    <g transform="translate(-1128 3)">
      <circle id="Elipse_4-32" data-name="Elipse 4" cx="2.5" cy="2.5" r="2.5" transform="translate(1371 51)" fill="#ef4c00"/>
    </g>
    <g transform="translate(-1101 3)">
      <circle id="Elipse_4-33" data-name="Elipse 4" cx="2.5" cy="2.5" r="2.5" transform="translate(1371 51)" fill="#ef4c00"/>
    </g>
    <g transform="translate(-1371 30)">
      <circle id="Elipse_4-34" data-name="Elipse 4" cx="2.5" cy="2.5" r="2.5" transform="translate(1371 51)" fill="#ef4c00"/>
    </g>
    <g transform="translate(-1344 30)">
      <circle id="Elipse_4-35" data-name="Elipse 4" cx="2.5" cy="2.5" r="2.5" transform="translate(1371 51)" fill="#ef4c00"/>
    </g>
    <g transform="translate(-1317 30)">
      <circle id="Elipse_4-36" data-name="Elipse 4" cx="2.5" cy="2.5" r="2.5" transform="translate(1371 51)" fill="#ef4c00"/>
    </g>
    <g transform="translate(-1290 30)">
      <circle id="Elipse_4-37" data-name="Elipse 4" cx="2.5" cy="2.5" r="2.5" transform="translate(1371 51)" fill="#ef4c00"/>
    </g>
    <g transform="translate(-1263 30)">
      <circle id="Elipse_4-38" data-name="Elipse 4" cx="2.5" cy="2.5" r="2.5" transform="translate(1371 51)" fill="#ef4c00"/>
    </g>
    <g transform="translate(-1236 30)">
      <circle id="Elipse_4-39" data-name="Elipse 4" cx="2.5" cy="2.5" r="2.5" transform="translate(1371 51)" fill="#ef4c00"/>
    </g>
    <g transform="translate(-1209 30)">
      <circle id="Elipse_4-40" data-name="Elipse 4" cx="2.5" cy="2.5" r="2.5" transform="translate(1371 51)" fill="#ef4c00"/>
    </g>
    <g transform="translate(-1182 30)">
      <circle id="Elipse_4-41" data-name="Elipse 4" cx="2.5" cy="2.5" r="2.5" transform="translate(1371 51)" fill="#ef4c00"/>
    </g>
    <g transform="translate(-1155 30)">
      <circle id="Elipse_4-42" data-name="Elipse 4" cx="2.5" cy="2.5" r="2.5" transform="translate(1371 51)" fill="#ef4c00"/>
    </g>
    <g transform="translate(-1128 30)">
      <circle id="Elipse_4-43" data-name="Elipse 4" cx="2.5" cy="2.5" r="2.5" transform="translate(1371 51)" fill="#ef4c00"/>
    </g>
    <g transform="translate(-1101 30)">
      <circle id="Elipse_4-44" data-name="Elipse 4" cx="2.5" cy="2.5" r="2.5" transform="translate(1371 51)" fill="#ef4c00"/>
    </g>
    <g transform="translate(-1371 57)">
      <circle id="Elipse_4-45" data-name="Elipse 4" cx="2.5" cy="2.5" r="2.5" transform="translate(1371 51)" fill="#ef4c00"/>
    </g>
    <g transform="translate(-1344 57)">
      <circle id="Elipse_4-46" data-name="Elipse 4" cx="2.5" cy="2.5" r="2.5" transform="translate(1371 51)" fill="#ef4c00"/>
    </g>
    <g transform="translate(-1317 57)">
      <circle id="Elipse_4-47" data-name="Elipse 4" cx="2.5" cy="2.5" r="2.5" transform="translate(1371 51)" fill="#ef4c00"/>
    </g>
    <g transform="translate(-1290 57)">
      <circle id="Elipse_4-48" data-name="Elipse 4" cx="2.5" cy="2.5" r="2.5" transform="translate(1371 51)" fill="#ef4c00"/>
    </g>
    <g transform="translate(-1263 57)">
      <circle id="Elipse_4-49" data-name="Elipse 4" cx="2.5" cy="2.5" r="2.5" transform="translate(1371 51)" fill="#ef4c00"/>
    </g>
    <g transform="translate(-1236 57)">
      <circle id="Elipse_4-50" data-name="Elipse 4" cx="2.5" cy="2.5" r="2.5" transform="translate(1371 51)" fill="#ef4c00"/>
    </g>
    <g transform="translate(-1209 57)">
      <circle id="Elipse_4-51" data-name="Elipse 4" cx="2.5" cy="2.5" r="2.5" transform="translate(1371 51)" fill="#ef4c00"/>
    </g>
    <g transform="translate(-1182 57)">
      <circle id="Elipse_4-52" data-name="Elipse 4" cx="2.5" cy="2.5" r="2.5" transform="translate(1371 51)" fill="#ef4c00"/>
    </g>
    <g transform="translate(-1155 57)">
      <circle id="Elipse_4-53" data-name="Elipse 4" cx="2.5" cy="2.5" r="2.5" transform="translate(1371 51)" fill="#ef4c00"/>
    </g>
    <g transform="translate(-1128 57)">
      <circle id="Elipse_4-54" data-name="Elipse 4" cx="2.5" cy="2.5" r="2.5" transform="translate(1371 51)" fill="#ef4c00"/>
    </g>
    <g transform="translate(-1101 57)">
      <circle id="Elipse_4-55" data-name="Elipse 4" cx="2.5" cy="2.5" r="2.5" transform="translate(1371 51)" fill="#ef4c00"/>
    </g>
    <g transform="translate(-1371 84)">
      <circle id="Elipse_4-56" data-name="Elipse 4" cx="2.5" cy="2.5" r="2.5" transform="translate(1371 51)" fill="#ef4c00"/>
    </g>
    <g transform="translate(-1344 84)">
      <circle id="Elipse_4-57" data-name="Elipse 4" cx="2.5" cy="2.5" r="2.5" transform="translate(1371 51)" fill="#ef4c00"/>
    </g>
    <g transform="translate(-1317 84)">
      <circle id="Elipse_4-58" data-name="Elipse 4" cx="2.5" cy="2.5" r="2.5" transform="translate(1371 51)" fill="#ef4c00"/>
    </g>
    <g transform="translate(-1290 84)">
      <circle id="Elipse_4-59" data-name="Elipse 4" cx="2.5" cy="2.5" r="2.5" transform="translate(1371 51)" fill="#ef4c00"/>
    </g>
    <g transform="translate(-1263 84)">
      <circle id="Elipse_4-60" data-name="Elipse 4" cx="2.5" cy="2.5" r="2.5" transform="translate(1371 51)" fill="#ef4c00"/>
    </g>
    <g transform="translate(-1236 84)">
      <circle id="Elipse_4-61" data-name="Elipse 4" cx="2.5" cy="2.5" r="2.5" transform="translate(1371 51)" fill="#ef4c00"/>
    </g>
    <g transform="translate(-1209 84)">
      <circle id="Elipse_4-62" data-name="Elipse 4" cx="2.5" cy="2.5" r="2.5" transform="translate(1371 51)" fill="#ef4c00"/>
    </g>
    <g transform="translate(-1182 84)">
      <circle id="Elipse_4-63" data-name="Elipse 4" cx="2.5" cy="2.5" r="2.5" transform="translate(1371 51)" fill="#ef4c00"/>
    </g>
    <g transform="translate(-1155 84)">
      <circle id="Elipse_4-64" data-name="Elipse 4" cx="2.5" cy="2.5" r="2.5" transform="translate(1371 51)" fill="#ef4c00"/>
    </g>
    <g transform="translate(-1128 84)">
      <circle id="Elipse_4-65" data-name="Elipse 4" cx="2.5" cy="2.5" r="2.5" transform="translate(1371 51)" fill="#ef4c00"/>
    </g>
    <g transform="translate(-1101 84)">
      <circle id="Elipse_4-66" data-name="Elipse 4" cx="2.5" cy="2.5" r="2.5" transform="translate(1371 51)" fill="#ef4c00"/>
    </g>
    <g transform="translate(-1371 111)">
      <circle id="Elipse_4-67" data-name="Elipse 4" cx="2.5" cy="2.5" r="2.5" transform="translate(1371 51)" fill="#ef4c00"/>
    </g>
    <g transform="translate(-1344 111)">
      <circle id="Elipse_4-68" data-name="Elipse 4" cx="2.5" cy="2.5" r="2.5" transform="translate(1371 51)" fill="#ef4c00"/>
    </g>
    <g transform="translate(-1317 111)">
      <circle id="Elipse_4-69" data-name="Elipse 4" cx="2.5" cy="2.5" r="2.5" transform="translate(1371 51)" fill="#ef4c00"/>
    </g>
    <g transform="translate(-1290 111)">
      <circle id="Elipse_4-70" data-name="Elipse 4" cx="2.5" cy="2.5" r="2.5" transform="translate(1371 51)" fill="#ef4c00"/>
    </g>
    <g transform="translate(-1263 111)">
      <circle id="Elipse_4-71" data-name="Elipse 4" cx="2.5" cy="2.5" r="2.5" transform="translate(1371 51)" fill="#ef4c00"/>
    </g>
    <g transform="translate(-1236 111)">
      <circle id="Elipse_4-72" data-name="Elipse 4" cx="2.5" cy="2.5" r="2.5" transform="translate(1371 51)" fill="#ef4c00"/>
    </g>
    <g transform="translate(-1209 111)">
      <circle id="Elipse_4-73" data-name="Elipse 4" cx="2.5" cy="2.5" r="2.5" transform="translate(1371 51)" fill="#ef4c00"/>
    </g>
    <g transform="translate(-1182 111)">
      <circle id="Elipse_4-74" data-name="Elipse 4" cx="2.5" cy="2.5" r="2.5" transform="translate(1371 51)" fill="#ef4c00"/>
    </g>
    <g transform="translate(-1155 111)">
      <circle id="Elipse_4-75" data-name="Elipse 4" cx="2.5" cy="2.5" r="2.5" transform="translate(1371 51)" fill="#ef4c00"/>
    </g>
    <g transform="translate(-1128 111)">
      <circle id="Elipse_4-76" data-name="Elipse 4" cx="2.5" cy="2.5" r="2.5" transform="translate(1371 51)" fill="#ef4c00"/>
    </g>
    <g transform="translate(-1101 111)">
      <circle id="Elipse_4-77" data-name="Elipse 4" cx="2.5" cy="2.5" r="2.5" transform="translate(1371 51)" fill="#ef4c00"/>
    </g>
  </g>
</svg>
