<svg xmlns="http://www.w3.org/2000/svg" xmlns:xlink="http://www.w3.org/1999/xlink" width="129" height="102" viewBox="0 0 129 102">
  <defs>
    <clipPath id="clip-path">
      <rect id="Rectángulo_10679" data-name="Rectángulo 10679" width="129" height="102" transform="translate(960 1988.331)" fill="#fff" stroke="#707070" stroke-width="1"/>
    </clipPath>
  </defs>
  <g id="Enmascarar_grupo_5" data-name="Enmascarar grupo 5" transform="translate(-960 -1988.331)" clip-path="url(#clip-path)">
    <g id="facebook" transform="translate(979.637 1988)">
      <g id="Grupo_1763" data-name="Grupo 1763" transform="translate(49.473 58.828)">
        <path id="Trazado_1591" data-name="Trazado 1591" d="M66.44,92.368a7.917,7.917,0,0,1-6.376-3.245,1.834,1.834,0,0,0-1.482-.786H52.834a2.9,2.9,0,0,1-2.512-4.351L52.275,80.6a13.111,13.111,0,0,0,1.754-6.547v-1.04l-3.825-.69a4.617,4.617,0,0,1,1.638-9.088l2.186.394V61.275a12.411,12.411,0,0,1,24.822,0v2.357l2.186-.394a4.617,4.617,0,1,1,1.639,9.088l-3.825.69v1.04A13.112,13.112,0,0,0,80.6,80.6l1.953,3.382a2.9,2.9,0,0,1-2.512,4.351H74.3a1.834,1.834,0,0,0-1.482.786,7.916,7.916,0,0,1-6.376,3.245ZM53.008,85.335h5.574a4.867,4.867,0,0,1,3.907,2.019,4.885,4.885,0,0,0,7.9,0A4.867,4.867,0,0,1,74.3,85.335h5.574L78.007,82.1a16.117,16.117,0,0,1-2.156-8.047V71.762a1.5,1.5,0,0,1,1.234-1.476l5.059-.912a1.617,1.617,0,1,0-.574-3.182l-3.952.713a1.5,1.5,0,0,1-1.767-1.476V61.275a9.41,9.41,0,0,0-18.82,0v4.152A1.5,1.5,0,0,1,55.263,66.9l-3.952-.713a1.617,1.617,0,1,0-.574,3.182l5.059.912a1.5,1.5,0,0,1,1.234,1.476v2.294A16.116,16.116,0,0,1,54.873,82.1Z" transform="translate(-46.406 -48.865)" fill="#ef4c00"/>
      </g>
      <g id="Grupo_1764" data-name="Grupo 1764" transform="translate(14.792)">
        <path id="Trazado_1592" data-name="Trazado 1592" d="M32.99,46.683H24.741a2.1,2.1,0,0,1-2.1-2.1V37.751a1.5,1.5,0,0,1,3,0v5.931H32.09V28.319a1.9,1.9,0,0,1,1.9-1.9h3.142V19.97H33.99a1.9,1.9,0,0,1-1.9-1.9V15.964A6.522,6.522,0,0,1,38.6,9.449h1.422V3H38.605A12.978,12.978,0,0,0,25.641,15.965V18.07a1.9,1.9,0,0,1-1.9,1.9H20.6v6.448h3.142a1.9,1.9,0,0,1,1.9,1.9V30.2a1.5,1.5,0,0,1-3,0v-.777H19.7a2.1,2.1,0,0,1-2.1-2.1V19.07a2.1,2.1,0,0,1,2.1-2.1H22.64v-1A15.983,15.983,0,0,1,38.6,0h2.322a2.1,2.1,0,0,1,2.1,2.1v8.249a2.1,2.1,0,0,1-2.1,2.1H38.6a3.519,3.519,0,0,0-3.515,3.515v1.005h2.942a2.1,2.1,0,0,1,2.1,2.1v8.249a2.1,2.1,0,0,1-2.1,2.1H35.09V44.582a2.1,2.1,0,0,1-2.1,2.1Z" transform="translate(-17.598 0)" fill="#ef4c00"/>
      </g>
      <g id="Grupo_1765" data-name="Grupo 1765" transform="translate(42.998 14.636)">
        <path id="Trazado_1593" data-name="Trazado 1593" d="M72.281,51.8H49.419a8.4,8.4,0,0,1-8.393-8.393V20.55a8.4,8.4,0,0,1,8.393-8.393h2.509a1.5,1.5,0,0,1,0,3H49.419a5.4,5.4,0,0,0-5.392,5.392V43.411A5.4,5.4,0,0,0,49.419,48.8H72.281a5.4,5.4,0,0,0,5.392-5.392V20.55a5.4,5.4,0,0,0-5.392-5.392H59.5a1.5,1.5,0,0,1,0-3h12.78a8.4,8.4,0,0,1,8.393,8.393V43.411A8.4,8.4,0,0,1,72.281,51.8Z" transform="translate(-41.027 -12.157)" fill="#ef4c00"/>
      </g>
      <g id="Grupo_1766" data-name="Grupo 1766" transform="translate(54.04 25.678)">
        <path id="Trazado_1594" data-name="Trazado 1594" d="M58.98,38.891a8.781,8.781,0,1,1,8.781-8.781A8.791,8.791,0,0,1,58.98,38.891Zm0-14.561a5.78,5.78,0,1,0,5.78,5.78A5.787,5.787,0,0,0,58.98,24.33Z" transform="translate(-50.199 -21.329)" fill="#ef4c00"/>
      </g>
      <g id="Grupo_1767" data-name="Grupo 1767" transform="translate(70.997 22.041)">
        <circle id="Elipse_63" data-name="Elipse 63" cx="2.121" cy="2.121" r="2.121" fill="#ef4c00"/>
      </g>
      <g id="Grupo_1768" data-name="Grupo 1768" transform="translate(0 52.744)">
        <path id="Trazado_1595" data-name="Trazado 1595" d="M34.469,79.083A19.5,19.5,0,0,1,15.781,65.092a11.251,11.251,0,0,1-5.472-6.4,8.272,8.272,0,0,1-4.28-1.745,1.9,1.9,0,0,1,.382-3.211l.233-.108a8.289,8.289,0,0,1-1.044-1.6,1.9,1.9,0,0,1,1.7-2.748h4.031A11.281,11.281,0,0,1,32.1,53.057,16.258,16.258,0,0,0,40.571,48.4a16.511,16.511,0,0,0,2.076-2.624,2.091,2.091,0,0,1,1.861-.966,2.113,2.113,0,0,1,1.777,1.14,19.4,19.4,0,0,1,1.933,5.939,1.5,1.5,0,0,1-2.965.459,16.43,16.43,0,0,0-1-3.636,19.465,19.465,0,0,1-13.08,7.532,1.7,1.7,0,0,1-1.908-1.6,8.279,8.279,0,0,0-15.606-3.386,1.9,1.9,0,0,1-1.684,1.023H9.512a5.049,5.049,0,0,0,.411.326,1.7,1.7,0,0,1-.242,2.914,5.342,5.342,0,0,0,1.461.207h.008a1.9,1.9,0,0,1,1.834,1.433,8.261,8.261,0,0,0,4.455,5.405,2.1,2.1,0,0,1,1.128,1.352,16.476,16.476,0,0,0,29.362,5.189,19.455,19.455,0,0,1-6.041.289,1.8,1.8,0,0,1-1.1-3.035l0,0a16.5,16.5,0,0,0,4.021-6.934,1.5,1.5,0,1,1,2.885.824A19.456,19.456,0,0,1,44.6,66.5a16.413,16.413,0,0,0,4.591-.834,2.1,2.1,0,0,1,2.533,2.964,19.428,19.428,0,0,1-17.26,10.454Z" transform="translate(-5.311 -43.811)" fill="#ef4c00"/>
      </g>
    </g>
  </g>
</svg>
