<svg id="Capa_1" enable-background="new 0 0 512 512" height="512" viewBox="0 0 512 512" width="512" xmlns="http://www.w3.org/2000/svg"><g><g><path d="m379.765 512c-12.564 0-24.491-6.071-31.902-16.238-1.822-2.5-4.526-3.934-7.417-3.934h-28.755c-5.246 0-9.945-2.712-12.568-7.256s-2.624-9.969 0-14.513l9.77-16.922c5.742-9.945 8.777-21.272 8.777-32.756v-5.206l-19.136-3.45c-12.537-2.261-20.897-14.299-18.637-26.836 2.261-12.536 14.299-20.901 26.835-18.637l10.937 1.971v-11.791c0-34.24 27.856-62.095 62.096-62.095s62.096 27.856 62.096 62.095v11.791l10.936-1.971c12.543-2.262 24.577 6.101 26.836 18.637 1.095 6.074-.24 12.209-3.76 17.278s-8.803 8.464-14.877 9.558l-19.136 3.45v5.206c0 11.483 3.035 22.809 8.777 32.756l9.77 16.922c2.623 4.543 2.623 9.969 0 14.513-2.623 4.543-7.322 7.256-12.569 7.256h-28.755c-2.891 0-5.595 1.434-7.417 3.934-7.409 10.167-19.336 16.238-31.901 16.238zm-67.207-35.186h27.889c7.629 0 14.937 3.777 19.549 10.104 4.596 6.304 11.986 10.069 19.77 10.069s15.175-3.764 19.77-10.069c4.612-6.327 11.92-10.104 19.55-10.104h27.888l-9.336-16.172c-7.058-12.226-10.788-26.148-10.788-40.263v-11.479c0-3.632 2.6-6.743 6.174-7.387l25.31-4.564c4.39-.792 7.318-5.007 6.526-9.397-.791-4.391-5.011-7.317-9.398-6.526l-19.774 3.566c-2.189.395-4.44-.2-6.146-1.627-1.707-1.426-2.693-3.536-2.693-5.76v-20.772c0-25.961-21.121-47.082-47.083-47.082-25.961 0-47.083 21.121-47.083 47.082v20.772c0 2.224-.986 4.334-2.693 5.76-1.706 1.425-3.958 2.021-6.146 1.627l-19.775-3.566c-4.39-.791-8.606 2.136-9.397 6.526s2.136 8.605 6.526 9.397l25.31 4.564c3.574.644 6.174 3.755 6.174 7.387v11.48c0 14.115-3.73 28.038-10.788 40.263z"/></g><g><path d="m183.013 233.575h-41.272c-5.795 0-10.509-4.714-10.509-10.509v-34.181c0-4.146 3.361-7.507 7.507-7.507s7.507 3.36 7.507 7.507v29.677h32.264v-76.87c0-5.243 4.266-9.508 9.508-9.508h15.719v-32.266h-15.719c-5.243 0-9.508-4.266-9.508-9.508v-10.534c0-17.975 14.623-32.598 32.598-32.598h7.113v-32.265h-7.112c-35.766 0-64.863 29.097-64.863 64.864v10.533c0 5.243-4.266 9.508-9.508 9.508h-15.719v32.264h15.719c5.243 0 9.508 4.266 9.508 9.508v9.393c0 4.146-3.361 7.507-7.507 7.507s-7.507-3.36-7.507-7.507v-3.888h-14.718c-5.795 0-10.509-4.714-10.509-10.509v-41.272c0-5.795 4.715-10.509 10.509-10.509h14.718v-5.028c0-44.044 35.832-79.877 79.876-79.877h11.616c5.795 0 10.509 4.714 10.509 10.509v41.272c0 5.795-4.715 10.509-10.509 10.509h-11.617c-9.697 0-17.585 7.889-17.585 17.585v5.029h14.718c5.795 0 10.509 4.714 10.509 10.509v41.272c0 5.795-4.715 10.509-10.509 10.509h-14.718v75.869c0 5.798-4.715 10.512-10.509 10.512z"/></g><g><path d="m403.502 271.594h-114.384c-23.154 0-41.991-18.837-41.991-41.991v-114.383c0-23.154 18.837-41.992 41.991-41.992h12.553c4.146 0 7.507 3.36 7.507 7.507s-3.361 7.507-7.507 7.507h-12.553c-14.876 0-26.978 12.103-26.978 26.978v114.383c0 14.876 12.102 26.977 26.978 26.977h114.383c14.876 0 26.978-12.102 26.978-26.977v-114.383c0-14.876-12.102-26.978-26.978-26.978h-63.943c-4.146 0-7.507-3.36-7.507-7.507s3.361-7.507 7.507-7.507h63.943c23.154 0 41.991 18.837 41.991 41.992v114.383c.001 23.154-18.836 41.991-41.99 41.991z"/></g><g><path d="m346.31 216.345c-24.226 0-43.935-19.709-43.935-43.934 0-24.226 19.709-43.935 43.935-43.935s43.935 19.709 43.935 43.935c0 24.225-19.709 43.934-43.935 43.934zm0-72.855c-15.947 0-28.921 12.974-28.921 28.921s12.974 28.92 28.921 28.92 28.921-12.973 28.921-28.92-12.974-28.921-28.921-28.921z"/></g><g><circle cx="397.83" cy="120.891" r="10.61"/></g><g><path d="m177.879 440.376c-43.255 0-81.413-28.683-93.503-70.004-12.985-6.782-22.751-18.237-27.378-32.033-10.281-1.032-17.687-5.767-21.412-8.731-2.599-2.068-3.916-5.271-3.524-8.568.392-3.294 2.423-6.097 5.434-7.498l1.164-.541c-2.405-2.887-4.089-5.708-5.226-7.987-1.481-2.966-1.323-6.42.42-9.24 1.746-2.823 4.771-4.509 8.092-4.509h20.169c10.192-16.966 28.433-27.369 48.381-27.369 27.575 0 50.71 19.81 55.513 46.262 16.188-3.303 30.742-11.274 42.403-23.284 3.894-4.009 7.388-8.427 10.386-13.131 2.009-3.151 5.572-5.019 9.313-4.832 3.758.171 7.165 2.357 8.891 5.703 4.808 9.319 8.062 19.317 9.672 29.717.634 4.097-2.173 7.933-6.27 8.567-4.097.629-7.933-2.173-8.567-6.27-.97-6.267-2.645-12.36-4.998-18.194-2.371 3.116-4.932 6.092-7.657 8.899-15.378 15.838-35.9 26.061-57.787 28.784-2.329.288-4.7-.408-6.503-1.918-1.809-1.515-2.918-3.736-3.042-6.094-1.165-21.977-19.33-39.194-41.355-39.194-15.47 0-29.542 8.527-36.727 22.252-1.649 3.155-4.879 5.117-8.426 5.117h-12.331c.634.559 1.319 1.107 2.058 1.633 2.458 1.748 3.815 4.702 3.539 7.709-.272 2.956-2.087 5.574-4.751 6.869 2.153.634 4.598 1.012 7.308 1.037h.041c4.318 0 8.09 2.942 9.178 7.168 3.057 11.882 11.183 21.738 22.292 27.044 2.784 1.326 4.843 3.793 5.645 6.766 9.679 35.832 42.394 60.858 79.558 60.858 27.089 0 52.022-13.138 67.349-34.898-9.813 2.028-19.951 2.556-30.224 1.448-3.449-.374-6.32-2.63-7.494-5.89-1.171-3.25-.409-6.809 1.989-9.296.008-.009.016-.017.022-.023 9.471-9.756 16.421-21.744 20.12-34.692 1.138-3.987 5.294-6.292 9.28-5.157 3.986 1.139 6.295 5.294 5.156 9.28-3.211 11.241-8.49 21.869-15.484 31.275 7.846-.296 15.559-1.696 22.97-4.173 4.104-1.373 8.569-.133 11.371 3.156 2.79 3.275 3.302 7.859 1.305 11.675-16.885 32.263-49.976 52.307-86.36 52.307z"/></g></g></svg>