<?xml version="1.0" encoding="UTF-8"?>
<!DOCTYPE svg PUBLIC "-//W3C//DTD SVG 1.1//EN" "http://www.w3.org/Graphics/SVG/1.1/DTD/svg11.dtd">
<!-- Creator: CorelDRAW 2018 (64 Bit) -->
<svg xmlns="http://www.w3.org/2000/svg" xml:space="preserve" width="365.569mm" height="135.795mm" version="1.1" style="shape-rendering:geometricPrecision; text-rendering:geometricPrecision; image-rendering:optimizeQuality; fill-rule:evenodd; clip-rule:evenodd"
viewBox="0 0 24527.73 9111.14"
 xmlns:xlink="http://www.w3.org/1999/xlink">
 <defs>
  <style type="text/css">
   <![CDATA[
    .fil1 {fill:#062C6E;fill-rule:nonzero}
    .fil5 {fill:#062C6E;fill-rule:nonzero}
    .fil2 {fill:#47A2DA;fill-rule:nonzero}
    .fil0 {fill:#F57F11;fill-rule:nonzero}
    .fil3 {fill:#F58823;fill-rule:nonzero}
    .fil4 {fill:#F58823;fill-rule:nonzero}
   ]]>
  </style>
 </defs>
 <g id="Capa_x0020_1">
  <metadata id="CorelCorpID_0Corel-Layer"/>
  <path class="fil0" d="M6509.79 2417.3l513.21 0 -1127.27 -2417.3 -14.48 0 -1125.78 2417.3 511.72 0 150.77 -329.99 942.56 0 149.27 329.99zm-907.61 -733.38l287.56 -630.54 286.56 630.54 -574.12 0z"/>
  <path id="1" class="fil1" d="M7945.6 59.41l-685.45 1.5 0 2356.39 685.45 0c761.34,0 1226.63,-444.82 1226.63,-1175.7 0,-735.87 -465.29,-1183.69 -1226.63,-1182.19zm2.99 1885.61l-216.17 0 0 -1415.83 211.68 0c466.28,0.5 749.85,269.59 749.85,710.92 0,438.83 -282.07,704.92 -745.36,704.92l0 0z"/>
  <polygon id="2" class="fil1" points="10804.22,59.91 10198.65,1429.31 9594.58,59.91 9092.85,59.91 10191.17,2476.21 10208.64,2476.21 11311.45,59.91 "/>
  <path id="3" class="fil1" d="M12542.07 2417.3l513.21 0 -1127.27 -2417.3 -14.48 0 -1125.78 2417.3 511.72 0 150.77 -329.99 942.56 0 149.27 329.99zm-907.61 -733.38l287.56 -630.54 286.56 630.54 -574.12 0z"/>
  <polygon id="4" class="fil1" points="14711.75,53.92 14711.75,1374.4 13314.88,15.98 13291.42,15.98 13291.42,2420.29 13764.7,2420.29 13764.7,1099.82 15165.05,2462.24 15187.02,2462.24 15187.02,53.92 "/>
  <path id="5" class="fil1" d="M16726.66 2461.73c356.96,0 610.07,-154.76 817.75,-361.45l-272.08 -382.92c-156.26,153.27 -343.48,269.09 -560.15,269.09 -363.94,0 -738.36,-324.5 -738.36,-744.36 0,-411.87 360.94,-747.85 739.87,-747.85 203.19,0 396.39,96.35 557.15,254.11l273.58 -373.93c-247.12,-236.64 -519.21,-357.95 -826.24,-362.45 -663.98,0 -1223.63,562.64 -1223.63,1227.62 0,661.99 552.16,1222.13 1232.11,1222.13z"/>
  <polygon id="6" class="fil1" points="19231.83,526.69 19231.83,60.41 17811,60.41 17811,2416.81 19231.83,2416.81 19231.83,1947.52 18284.28,1947.52 18284.28,1458.27 19097.54,1458.27 19097.54,985.99 18284.28,985.99 18284.28,526.69 "/>
  <path id="7" class="fil1" d="M20267.25 59.41l-685.45 1.5 0 2356.39 685.45 0c761.34,0 1226.63,-444.82 1226.63,-1175.7 0,-735.87 -465.29,-1183.69 -1226.63,-1182.19zm2.99 1885.61l-216.17 0 0 -1415.83 211.68 0c466.28,0.5 749.85,269.59 749.85,710.92 0,438.83 -282.07,704.92 -745.36,704.92l0 0z"/>
  <polygon class="fil2" points="6436.36,5429.23 6436.36,4934.99 5708.47,4523.12 6436.36,4109.75 6451.33,3617 5034.5,4508.64 5034.5,4537.59 "/>
  <polygon id="1" class="fil2" points="6687.47,5908.5 7101.34,5908.5 8050.39,3200.64 7635.02,3200.64 "/>
  <path id="2" class="fil2" d="M9856.13 3376.87l-685.45 1.5 0 2356.39 685.45 0c761.34,0 1226.63,-444.82 1226.63,-1175.7 0,-735.87 -465.29,-1183.69 -1226.63,-1182.19zm2.99 1885.61l-216.17 0 0 -1415.83 211.68 0c466.28,0.5 749.85,269.59 749.85,710.92 0,438.83 -282.07,704.92 -745.36,704.92l0 0z"/>
  <polygon id="3" class="fil2" points="12810.61,3844.15 12810.61,3377.86 11389.78,3377.86 11389.78,5734.26 12810.61,5734.26 12810.61,5264.98 11863.06,5264.98 11863.06,4775.73 12676.32,4775.73 12676.32,4303.45 11863.06,4303.45 11863.06,3844.15 "/>
  <path id="4" class="fil2" d="M14740.16 5734.76l513.21 0 -1127.27 -2417.3 -14.48 0 -1125.78 2417.3 511.72 0 150.77 -329.99 942.56 0 149.27 329.99zm-907.61 -733.38l287.56 -630.54 286.56 630.54 -574.12 0z"/>
  <path id="5" class="fil2" d="M16123.54 5782.69c506.22,0 856.69,-273.08 856.69,-703.42 0,-363.45 -245.62,-563.14 -636.53,-747.86 -271.58,-127.31 -450.81,-175.73 -450.81,-316.51 0,-121.82 132.3,-224.16 310.02,-224.16 132.3,0 269.09,56.91 338.98,197.69l348.97 -244.63c-106.34,-284.56 -371.93,-417.36 -695.44,-417.36 -434.33,0 -778.81,268.59 -778.81,676.47 0,376.92 290.56,522.2 555.65,654 248.12,123.31 531.69,259.6 531.69,432.83 0,125.81 -149.77,216.67 -372.93,216.67 -204.69,0 -354.96,-75.88 -458.8,-243.12l-378.42 266.59c158.26,292.06 442.83,452.81 829.73,452.81z"/>
  <polygon id="6" class="fil2" points="17280.28,5429.23 18682.13,4537.59 18682.13,4508.64 17265.29,3617 17280.28,4109.75 18008.16,4523.12 17280.28,4934.99 "/>
  <polygon id="7" class="fil3" points="8286.02,5734.76 8759.3,5734.76 8759.3,3377.37 8286.02,3377.37 "/>
  <path class="fil4" d="M5615.66 6694.34l-685.45 1.5 0 2356.39 685.45 0c761.34,0 1226.63,-444.82 1226.63,-1175.7 0,-735.87 -465.29,-1183.69 -1226.63,-1182.19zm2.99 1885.61l-216.17 0 0 -1415.83 211.68 0c466.28,0.5 749.85,269.59 749.85,710.92 0,438.83 -282.07,704.92 -745.36,704.92l0 0z"/>
  <polygon id="1" class="fil5" points="8570.14,7161.62 8570.14,6695.33 7149.31,6695.33 7149.31,9051.73 8570.14,9051.73 8570.14,8582.44 7622.59,8582.44 7622.59,8093.19 8435.85,8093.19 8435.85,7620.91 7622.59,7620.91 7622.59,7161.62 "/>
  <polygon id="2" class="fil5" points="10457.25,6694.83 9851.68,8064.24 9247.61,6694.83 8745.87,6694.83 9844.19,9111.14 9861.66,9111.14 10964.48,6694.83 "/>
  <polygon id="3" class="fil5" points="12619.95,7161.62 12619.95,6695.33 11199.12,6695.33 11199.12,9051.73 12619.95,9051.73 12619.95,8582.44 11672.4,8582.44 11672.4,8093.19 12485.65,8093.19 12485.65,7620.91 11672.4,7620.91 11672.4,7161.62 "/>
  <polygon id="4" class="fil5" points="13442.19,8582.44 13442.19,6694.83 12968.91,6694.83 12968.91,9051.73 14389.74,9051.73 14389.74,8582.44 "/>
  <path id="5" class="fil5" d="M15706.72 9096.66c675.97,0 1228.12,-548.66 1228.12,-1219.63 0,-676.96 -552.15,-1229.62 -1226.62,-1229.62 -674.47,0 -1223.63,552.66 -1223.63,1229.62 0,670.97 549.16,1219.63 1222.13,1219.63zm0 -478.26c-410.87,0 -745.86,-334.99 -745.86,-744.36 0,-411.87 334.98,-748.35 745.86,-748.35 412.36,0 748.85,336.49 748.85,748.35 0,409.37 -336.49,744.36 -748.85,744.36z"/>
  <path id="6" class="fil5" d="M17240.87 9052.23l473.28 0 0 -767.33 354.45 0c456.3,0 828.73,-357.45 828.73,-793.78 0,-437.33 -372.43,-795.78 -828.73,-795.78l-827.73 0 0 2356.9zm827.73 -1236.11l-354.45 -1.5 0 -650 354.45 0c196.2,0 355.45,144.27 355.45,322.01 0,182.22 -159.26,330.99 -355.45,329.5z"/>
  <polygon id="7" class="fil5" points="20585.26,7161.62 20585.26,6695.33 19164.43,6695.33 19164.43,9051.73 20585.26,9051.73 20585.26,8582.44 19637.71,8582.44 19637.71,8093.19 20450.96,8093.19 20450.96,7620.91 19637.71,7620.91 19637.71,7161.62 "/>
  <path id="8" class="fil5" d="M22740.46 9052.23l-668.97 -937.07c252.61,-89.36 435.33,-353.96 435.33,-656.5 0,-424.35 -360.94,-763.34 -801.77,-763.34l-768.33 0 1.5 2356.9 472.27 0 0 -1114.3 751.35 1114.3 578.61 0zm-1329.97 -1887.61l304.04 0c159.26,0 304.03,128.8 304.03,297.04 0,167.74 -143.28,298.05 -304.03,296.55l-304.04 -1.5 0 -592.09z"/>
  <path id="9" class="fil5" d="M23671.04 9100.15c506.22,0 856.69,-273.08 856.69,-703.42 0,-363.45 -245.62,-563.14 -636.53,-747.86 -271.58,-127.31 -450.81,-175.73 -450.81,-316.51 0,-121.82 132.3,-224.16 310.02,-224.16 132.3,0 269.09,56.91 338.98,197.69l348.97 -244.63c-106.34,-284.56 -371.93,-417.36 -695.44,-417.36 -434.33,0 -778.81,268.59 -778.81,676.47 0,376.92 290.56,522.2 555.65,654 248.12,123.31 531.69,259.6 531.69,432.83 0,125.81 -149.77,216.67 -372.93,216.67 -204.69,0 -354.96,-75.88 -458.8,-243.12l-378.42 266.59c158.26,292.06 442.83,452.81 829.73,452.81z"/>
  <path class="fil5" d="M2304.29 1727.25c0.21,-59.34 48.53,-107.26 107.87,-107.04 59.34,0.21 107.26,48.53 107.04,107.87 -0.96,214.1 -2.54,380.82 -3.97,533.2 -2.72,290.57 -4.98,529.38 -1.58,939.17 1.61,195.46 34.57,321.74 82.51,380.67 10.16,12.49 18.65,19.1 24.93,19.75 7.66,0.79 19.11,-4.39 33.8,-15.58 66.67,-50.74 135.85,-176.26 188.72,-379.9 17.51,-67.55 39.74,-135.64 65.5,-199.06 25.03,-61.63 54.13,-120.88 86.3,-173.57 90.04,-147.32 196.98,-258.25 301.21,-366.38 213.68,-221.65 414.72,-430.21 359.12,-938.56 -35.57,-325.28 -192.74,-585.11 -412.1,-765.97 -134.94,-111.24 -293.37,-193.09 -461.69,-242.32 -168.68,-49.36 -347.38,-65.99 -522.47,-46.85 -293.32,32.08 -575.72,165.58 -781.52,415.18 -594.61,721.13 -110.32,1444.78 -75.21,1495.27 42.67,50.27 340.96,415.47 390.75,856.55 9.57,84.8 14.97,149.47 19.5,204.11 16.73,201.23 19.55,234.98 194.94,313.88 90.52,40.73 180.97,79.29 270.07,117.29 350.05,149.25 681.77,290.65 681.88,446.99 0.13,130.34 -198.75,211.35 -738.06,211.84 -180.97,0.17 -299.23,20.78 -363.48,52.96 -8.82,4.41 -15.61,8.48 -20.44,12.18 59.99,101.59 344.13,139.19 595.61,172.42l63.27 8.43c467.52,63.12 466.42,78.97 445.93,369.64 -3.75,53.18 -8.49,120.4 -6.9,200.21 1.16,59.34 -46.01,108.4 -105.35,109.57 -59.34,1.16 -108.4,-46.01 -109.57,-105.35 -1.91,-94.87 3.01,-164.5 6.9,-219.59 7.04,-99.77 7.4,-105.23 -259.66,-141.31l-62.44 -8.37c-308.98,-40.83 -658.75,-87.09 -762.94,-294.98 -15.57,-31.07 -23.55,-63.06 -23.58,-95.32 -0.03,-44.34 14.29,-85.75 43.71,-122.86l0.21 0.17c23.5,-29.56 56.48,-55.62 99.17,-77 91.91,-46.05 243,-75.52 459.55,-75.7 382.14,-0.35 523.14,5.24 523.14,3.07 0,-13.88 -268.21,-128.25 -551.26,-248.94 -94.08,-40.12 -189.75,-80.92 -274.29,-118.94 -291.3,-131.06 -295.61,-182.96 -321.36,-492.58 -4.74,-57.13 -10.37,-124.72 -18.67,-198.2 -43.09,-381.64 -306.58,-701.15 -340.13,-740.48 -3.82,-3.97 -7.39,-8.27 -10.65,-12.91 -1.81,-2.56 -637.94,-883.94 83.27,-1758.57 244.43,-296.44 578.5,-454.86 924.83,-492.73 202.43,-22.14 409.41,-2.79 605.05,54.46 196.06,57.35 380.78,152.81 538.38,282.75 260.72,214.96 447.45,523.42 489.64,909.28 66.48,607.8 -168.42,851.49 -418.11,1110.48 -96.15,99.75 -194.8,202.08 -272.56,329.31 -25.4,41.58 -49.15,90.29 -70.3,142.36 -23.09,56.85 -42.42,115.62 -57.06,172.1 -65.86,253.74 -164.68,419.75 -266.27,497.05 -60.02,45.66 -123.44,65.1 -186.33,58.57 -64.26,-6.7 -122.21,-39.52 -169.9,-98.13 -76.28,-93.78 -128.49,-266.74 -130.54,-514.68 -3.42,-411.61 -1.17,-651.13 1.58,-942.56 1.44,-152.77 3.02,-319.85 3.97,-532.34z"/>
  <path class="fil5" d="M2414.47 1112.87c77.19,0 147.18,31.39 197.9,82.08l0.23 0c50.69,50.69 82.08,120.77 82.08,198.14 0,77.35 -31.39,147.42 -82.08,198.11l-0.23 0c-50.72,50.7 -120.72,82.08 -197.9,82.08 -77.35,0 -147.42,-31.39 -198.12,-82.08 -50.69,-50.69 -82.08,-120.76 -82.08,-198.11 0,-77.19 31.39,-147.18 82.08,-197.9l0 -0.23c50.7,-50.69 120.77,-82.08 198.12,-82.08zm110.18 170.02c-28.11,-28.13 -67.09,-45.53 -110.18,-45.53 -43,0 -81.96,17.44 -110.11,45.6 -28.2,28.05 -45.6,67.04 -45.6,110.13 0,43 17.44,81.96 45.6,110.11 28.15,28.15 67.11,45.6 110.11,45.6 43.09,0 82.08,-17.4 110.25,-45.48 28.03,-28.27 45.48,-67.22 45.48,-110.22 0,-43.03 -17.44,-81.98 -45.54,-110.2z"/>
  <path class="fil5" d="M1214.09 5702.4c313.71,0 613.24,59.53 912.75,119.06 572.27,113.71 1144.6,227.44 1780.62,-107.39 17.38,-9.15 36.22,-12.63 54.44,-11.12l0.02 -0.16c92.9,7.78 151.75,51.12 188.11,117.88 29.39,54.02 38.87,119.92 38.74,191.47 -0.4,180.08 -20.63,380.59 -54.23,578.33 -35.82,210.97 -86.89,420.34 -145.37,599.78 -117.9,361.79 -293.92,770.47 -549.77,1097.3 -263.48,336.59 -610.09,585.87 -1062.85,612.61 -291.02,17.2 -537.53,-79.87 -748.53,-236.19 -190.91,-141.43 -350.95,-330.7 -487.77,-525.76 -206.68,-17.2 -402.77,-111.26 -572.14,-250.25 -169.55,-139.13 -313.12,-324.05 -413.16,-521 -101.02,-198.84 -158.48,-412 -154.79,-605.32 3.1,-160.97 48.07,-308.94 144.37,-426.31 39.9,-48.66 83.24,-91.26 134.98,-121.9 56.72,-33.59 120.97,-52.02 197.22,-47.82 6.66,0.37 13.28,0.93 19.85,1.66 -8.39,-86.38 -6.69,-161.73 6.64,-224.66 28.25,-133.3 102.23,-215.64 231.96,-237.19 85.38,-14.18 228.39,-9.59 350.14,-5.71 43.52,1.4 83.85,2.69 128.77,2.69zm874.64 314.35c-289.74,-57.58 -579.52,-115.17 -874.64,-115.17 -27.31,0 -79.1,-1.68 -135.01,-3.46 -112.5,-3.6 -244.69,-7.82 -312,3.35 -37.05,6.14 -59.29,34.84 -69.36,82.36 -15.99,75.45 -6.84,185.83 21.96,324.3 8.73,34.44 -1.35,72.46 -29.45,98.03 -40.6,36.94 -103.49,33.98 -140.44,-6.62 -8.9,-9.8 -20.47,-17.91 -33.78,-23.85 -14.8,-6.61 -31.86,-10.67 -50.17,-11.67 -33.01,-1.81 -60.78,6.12 -85.18,20.56 -29.37,17.41 -56.5,44.64 -82.86,76.78 -66.05,80.48 -96.97,186.08 -99.23,303.38 -3.05,160.38 46.61,341.12 133.78,512.73 88.12,173.5 213.9,335.83 361.81,457.2 149.7,122.86 321.26,202.96 497.05,207.68 32.76,-1 65.33,14.22 85.16,43.3 132.44,193.87 287.1,383.35 469.93,518.8 175.92,130.34 380.01,211.38 618.56,197.29 386.77,-22.84 687.12,-241.23 918.15,-536.36 238.68,-304.91 404.86,-692.2 517.1,-1036.63 55.63,-170.74 104.25,-370.05 138.36,-570.96 32.15,-189.21 51.48,-378.66 51.86,-545.67 0.09,-41.46 -3.48,-76.12 -14.61,-96.57 -1.84,-3.38 -4.66,-6.31 -8.66,-8.63 -684.81,346.99 -1281.61,228.39 -1878.35,109.81z"/>
  <path class="fil5" d="M892.14 6662.65c35.53,176.14 74.19,347.4 130.49,516.33 55.57,166.76 128.9,332.53 234.54,500.63 24.33,38.67 12.73,89.78 -25.95,114.11 -24.58,15.47 -54.19,16.42 -78.74,5.11 -288.64,-133.1 -488.19,-281.87 -614.66,-449 -130.63,-172.62 -182.91,-362.47 -173.94,-572.7l0.12 -2.86c4.51,-107.32 5.68,-133.89 113.68,-196.09 57.74,-33.29 120.29,-45.18 185.05,-38.75 63.14,6.27 127.73,30.27 191.16,68.75 20.62,12.49 33.83,32.55 38.24,54.46zm-26.43 568.23c-54.9,-164.77 -93.41,-329.71 -128.02,-498.28 -31.66,-15.8 -62.33,-25.61 -91.16,-28.47 -31,-3.07 -60.3,2.23 -86.53,17.34 -28.86,16.62 -29.26,25.1 -30.69,59.29l-0.11 2.85c-7.34,171.83 34.99,326.47 140.87,466.38 72.46,95.74 174.85,185.65 311.38,270.52 -45.73,-96.54 -83.49,-192.88 -115.74,-289.63z"/>
  <path class="fil5" d="M3033.55 1713.21c77.35,0 147.42,31.39 198.11,82.08l0 0.23c50.7,50.73 82.08,120.72 82.08,197.9 0,77.35 -31.39,147.43 -82.08,198.12 -50.69,50.69 -120.76,82.08 -198.11,82.08 -77.19,0 -147.18,-31.39 -197.9,-82.08l-0.23 0c-50.69,-50.69 -82.08,-120.77 -82.08,-198.12 0,-77.37 31.39,-147.44 82.08,-198.13 50.7,-50.69 120.77,-82.08 198.14,-82.08zm110.22 169.96c-28.26,-28.04 -67.22,-45.48 -110.22,-45.48 -43.03,0 -81.98,17.44 -110.13,45.6 -28.15,28.15 -45.6,67.11 -45.6,110.13 0,43.01 17.44,81.96 45.6,110.12 28.05,28.2 67.04,45.59 110.13,45.59 43,0 81.96,-17.44 110.11,-45.59 28.15,-28.15 45.6,-67.11 45.6,-110.12 0,-43.09 -17.4,-82.08 -45.48,-110.24z"/>
  <path class="fil5" d="M1807 1713.21c77.18,0 147.18,31.39 197.9,82.08l0.23 0c50.69,50.69 82.08,120.76 82.08,198.13 0,77.35 -31.39,147.43 -82.08,198.12l-0.23 0c-50.72,50.69 -120.72,82.08 -197.9,82.08 -77.35,0 -147.43,-31.39 -198.12,-82.08 -50.69,-50.69 -82.08,-120.77 -82.08,-198.12 0,-77.18 31.39,-147.17 82.08,-197.9l0 -0.23c50.69,-50.69 120.77,-82.08 198.12,-82.08zm110.18 170.01c-28.1,-28.13 -67.09,-45.53 -110.18,-45.53 -43.01,0 -81.96,17.44 -110.11,45.6 -28.2,28.05 -45.6,67.04 -45.6,110.13 0,43.01 17.44,81.96 45.6,110.12 28.15,28.15 67.1,45.59 110.11,45.59 43.09,0 82.08,-17.39 110.24,-45.48 28.04,-28.27 45.48,-67.22 45.48,-110.23 0,-43.02 -17.44,-81.98 -45.55,-110.2z"/>
 </g>
</svg>
