<svg xmlns="http://www.w3.org/2000/svg" xmlns:xlink="http://www.w3.org/1999/xlink" width="81" height="69" viewBox="0 0 81 69">
  <defs>
    <clipPath id="clip-path">
      <rect id="Rectángulo_10680" data-name="Rectángulo 10680" width="81" height="69" transform="translate(960 2247)" fill="#fff" stroke="#707070" stroke-width="1"/>
    </clipPath>
  </defs>
  <g id="Enmascarar_grupo_6" data-name="Enmascarar grupo 6" transform="translate(-960 -2247)" clip-path="url(#clip-path)">
    <g id="megafono" transform="translate(960 2249.477)">
      <g id="Grupo_1770" data-name="Grupo 1770" transform="translate(73.591 30.452)">
        <g id="Grupo_1769" data-name="Grupo 1769">
          <path id="Trazado_1596" data-name="Trazado 1596" d="M114.775,57.656h-4.447a1.586,1.586,0,0,0,0,3.172h4.447a1.586,1.586,0,0,0,0-3.172Z" transform="translate(-108.742 -57.656)" fill="#102733"/>
        </g>
      </g>
      <g id="Grupo_1772" data-name="Grupo 1772" transform="translate(73.591 21.19)">
        <g id="Grupo_1771" data-name="Grupo 1771">
          <path id="Trazado_1597" data-name="Trazado 1597" d="M114.613,44.764a1.586,1.586,0,0,0-2.167-.581l-2.912,1.681a1.586,1.586,0,1,0,1.586,2.747l2.912-1.681A1.586,1.586,0,0,0,114.613,44.764Z" transform="translate(-108.741 -43.971)" fill="#102733"/>
        </g>
      </g>
      <g id="Grupo_1774" data-name="Grupo 1774" transform="translate(73.591 38.031)">
        <g id="Grupo_1773" data-name="Grupo 1773">
          <path id="Trazado_1598" data-name="Trazado 1598" d="M114.032,70.751l-2.912-1.681a1.586,1.586,0,1,0-1.586,2.747l2.912,1.681a1.586,1.586,0,0,0,1.586-2.747Z" transform="translate(-108.741 -68.857)" fill="#102733"/>
        </g>
      </g>
      <g id="Grupo_1776" data-name="Grupo 1776" transform="translate(0 0)">
        <g id="Grupo_1775" data-name="Grupo 1775">
          <path id="Trazado_1599" data-name="Trazado 1599" d="M67.3,22.811C65.739,15.98,63.619,12.66,60.824,12.66a3.365,3.365,0,0,0-1.539.371L.972,37.524A1.585,1.585,0,0,0,0,38.986V50.405a1.586,1.586,0,0,0,.972,1.462l8.554,3.594.015.007,4.1,1.721V67.14a4.525,4.525,0,0,0,4.52,4.52H32.593a4.525,4.525,0,0,0,4.52-4.52v-.09l22.174,9.315a3.366,3.366,0,0,0,1.537.37c2.8,0,4.915-3.32,6.481-10.151A102.712,102.712,0,0,0,69.389,44.7,102.721,102.721,0,0,0,67.3,22.811ZM33.941,67.14a1.35,1.35,0,0,1-1.348,1.348H18.16a1.35,1.35,0,0,1-1.348-1.348V58.522l17.129,7.2V67.14Zm-22.2-14.191V44.672a1.586,1.586,0,0,0-3.172,0v6.944L3.172,49.351V40.04l52.6-22.093a36.459,36.459,0,0,0-1.428,4.864c-.049.214-.1.432-.145.651L36.216,30.23A1.586,1.586,0,1,0,37.333,33.2L53.52,27.106A114.476,114.476,0,0,0,52.26,44.7a102.711,102.711,0,0,0,2.084,21.887,36.516,36.516,0,0,0,1.428,4.863ZM55.56,38.856a5.946,5.946,0,0,1,0,11.723c-.086-1.915-.131-3.883-.131-5.881S55.475,40.759,55.56,38.856Zm8.652,27.02c-1.448,6.319-3.066,7.687-3.388,7.687a.184.184,0,0,1-.046-.008c-.026-.013-.051-.026-.077-.037l-.038-.016c-.532-.321-1.946-2.035-3.227-7.626a81.852,81.852,0,0,1-1.687-12.118,9.117,9.117,0,0,0,0-18.08,81.932,81.932,0,0,1,1.69-12.158c1.281-5.588,2.693-7.3,3.226-7.626l.14-.059.022,0c.323,0,1.94,1.368,3.388,7.687a99.526,99.526,0,0,1,2,21.178A99.506,99.506,0,0,1,64.212,65.876Z" transform="translate(0 -12.66)" fill="#ef4c00"/>
        </g>
      </g>
      <g id="Grupo_1778" data-name="Grupo 1778" transform="translate(28.536 19.958)">
        <g id="Grupo_1777" data-name="Grupo 1777">
          <path id="Trazado_1600" data-name="Trazado 1600" d="M45.274,43.181a1.586,1.586,0,0,0-2.042-.929l-.036.014a1.586,1.586,0,1,0,1.112,2.971l.036-.014A1.586,1.586,0,0,0,45.274,43.181Z" transform="translate(-42.166 -42.151)" fill="#102733"/>
        </g>
      </g>
    </g>
  </g>
</svg>
