<svg xmlns="http://www.w3.org/2000/svg" xmlns:xlink="http://www.w3.org/1999/xlink" width="664" height="547" viewBox="0 0 664 547">
  <defs>
    <clipPath id="clip-path">
      <rect id="Rectángulo_10699" data-name="Rectángulo 10699" width="664" height="547" transform="translate(6502.566 11.931)" fill="#fff" stroke="#707070" stroke-width="1"/>
    </clipPath>
  </defs>
  <g id="Enmascarar_grupo_14" data-name="Enmascarar grupo 14" transform="translate(-6502.566 -11.932)" clip-path="url(#clip-path)">
    <g id="Group_410" data-name="Group 410" transform="translate(6501.845 25.982)">
      <g id="Group_406" data-name="Group 406" transform="translate(0)">
        <g id="Group_404" data-name="Group 404" transform="translate(66.119)">
          <path id="path20" d="M317.392-468.528H266.663V-518.9h50.729v50.369m-67.8-67.307v84.22h84.826v-84.22H249.591" transform="translate(-96.903 535.845)" fill="#b7ced6"/>
          <path id="path22" d="M216.179-468.558H165.445v-50.369h50.734Zm17.035-67.276H148.387v84.22h84.827v-84.22" transform="translate(-148.387 535.845)" fill="#b7ced6"/>
          <path id="path24" d="M294.554-412.121h.039v-.035h-.039Z" transform="translate(-74.028 597.425)" fill="#3b3c3c"/>
          <path id="path26" d="M272.067-400.875h.037v-.037h-.037Z" transform="translate(-85.468 603.026)" fill="#3b3c3c"/>
          <path id="path28" d="M294.556-400.873h.037v-.038h-.037Z" transform="translate(-74.027 603.028)" fill="#3b3c3c"/>
          <path id="path30" d="M311.527-384.054V-400.9l-16.947.018v16.808l16.945.018" transform="translate(-74.014 603.035)" fill="#3b3c3c"/>
          <path id="path36" d="M294.554-423.365h.039v-.035h-.039Z" transform="translate(-74.028 591.829)" fill="#3b3c3c"/>
          <path id="path38" d="M311.527-400.938v-16.846h-.046v-16.863H294.589v16.881h-.009v16.809l16.947.017" transform="translate(-74.014 586.228)" fill="#3b3c3c"/>
          <path id="path40" d="M283.43-434.776v-33.53h-33.8v16.769h16.949v16.762h16.854" transform="translate(-96.876 569.463)" fill="#3b3c3c"/>
          <path id="path42" d="M255.286-445.816h-16.93v16.731h16.93v-16.731" transform="translate(-102.618 580.663)" fill="#3b3c3c"/>
          <path id="path44" d="M238.333-434.607h.036v-.038h-.036Z" transform="translate(-102.629 586.233)" fill="#3b3c3c"/>
          <path id="path46" d="M249.578-434.607h.035v-.038h-.035Z" transform="translate(-96.909 586.233)" fill="#3b3c3c"/>
          <path id="path50" d="M227.106-423.381l.02.018v-.038h-.039v.038h.039l-.02-.018" transform="translate(-108.35 591.833)" fill="#3b3c3c"/>
          <path id="path52" d="M187.713-412.1h-16.8v16.683h16.8V-412.1" transform="translate(-136.925 597.453)" fill="#b7ced6"/>
          <path id="path54" d="M288.927-513.275h-16.8v16.68h16.8v-16.68" transform="translate(-85.439 547.074)" fill="#3b3c3c"/>
          <path id="path56" d="M187.736-513.3h-16.8v16.68h16.8V-513.3" transform="translate(-136.911 547.065)" fill="#b7ced6"/>
          <path id="path58" d="M216.19-367.321H165.459v-50.37H216.19Zm17.024-67.308H148.387v84.223h84.827v-67.359H250.1v-16.881h-16.89v.018" transform="translate(-148.387 586.232)" fill="#b7ced6"/>
          <path id="path60" d="M368.908-434.791H352.017v16.872h-.082v33.675h-.008V-401.05h-16.9v16.812q-16.97.009-33.939.012-.018,8.4-.035,16.806H284.129q-.02-8.4-.039-16.806l-16.928-.038v-33.65h16.853V-434.8H267.162v-16.887h16.871v-50.5H267.207V-519h16.91v-16.832H250.18v50.588h16.9v16.806H250.269v33.689h16.854v16.806H250.1V-434.78h-16.89v16.832H216.221v-16.731H182.3v16.731H165.371v-16.826H148.387v16.845l16.947.018v16.737h17v-16.737h17.01v16.872h50.861v16.812h16.916q.018,8.4.039,16.806l16.927.038v16.809H267.123v-16.809H250.269v50.5h16.854v-16.78h.057v16.815h16.89v-16.815h.057v-16.872h16.927v16.844H318.02v16.844H267.164q-.011,8.413-.02,16.826H335q-.008-16.835-.019-33.67l-16.928-.04v-16.843H301.093v-16.79h33.931v33.646h33.892v-16.8H352.063v-16.883h16.851v-33.669H385.9v-33.689H368.907v-.018" transform="translate(-148.387 535.837)" fill="#b7ced6"/>
          <path id="path70" d="M334.415-461.717H249.589v-53.837h17.072v36.924h50.731v-36.924h17.023v53.837" transform="translate(-96.902 545.936)" fill="#b7ced6"/>
          <path id="path72" d="M294.554-412.121h.039v-.035h-.039Z" transform="translate(-74.028 597.425)" fill="#3b3c3c"/>
          <path id="path74" d="M272.067-400.875h.037v-.037h-.037Z" transform="translate(-85.468 603.026)" fill="#3b3c3c"/>
          <path id="path76" d="M294.556-400.873h.037v-.038h-.037Z" transform="translate(-74.027 603.028)" fill="#3b3c3c"/>
          <path id="path78" d="M311.526-384.054l-16.945-.018V-400.88l16.947-.018v16.844" transform="translate(-74.013 603.035)" fill="#b7ced6"/>
          <path id="path82" d="M300.289-372.818H283.323v-16.826H300.27q.009,8.413.019,16.826" transform="translate(-79.741 608.633)" fill="#b7ced6"/>
          <path id="path84" d="M294.554-423.365h.039v-.035h-.039Z" transform="translate(-74.028 591.829)" fill="#3b3c3c"/>
          <path id="path86" d="M311.527-400.939l-16.947-.017v-16.809h.009v-16.881h16.891v16.863h.046v16.846" transform="translate(-74.014 586.23)" fill="#b7ced6"/>
          <path id="path88" d="M283.43-434.776H266.576v-16.762H249.633v-16.769h33.8v33.53" transform="translate(-96.876 569.463)" fill="#b7ced6"/>
          <path id="path90" d="M255.286-429.083h-16.93v-16.734h16.93v16.731" transform="translate(-102.618 580.663)" fill="#b7ced6"/>
          <path id="path92" d="M238.333-434.607h.036v-.038h-.036Z" transform="translate(-102.629 586.233)" fill="#3b3c3c"/>
          <path id="path94" d="M249.578-434.607h.035v-.038h-.035Z" transform="translate(-96.909 586.233)" fill="#3b3c3c"/>
          <path id="path98" d="M227.088-423.365h.039v-.035h-.039Z" transform="translate(-108.35 591.829)" fill="#3b3c3c"/>
          <path id="path100" d="M288.927-496.593h-16.8v-16.68h16.8v16.68" transform="translate(-85.439 547.081)" fill="#b7ced6"/>
          <path id="path102" d="M296.883-311.206H229.018q.009-8.413.02-16.826H279.9v-16.841H262.935v-16.844H246.011v16.872h-.057v16.814H229.06v-16.814H229v16.78h-5.682v-19.912a1.386,1.386,0,0,1,1.38-1.368h1.208v-13.432H224.7a1.385,1.385,0,0,1-1.379-1.368v-14.418H229v16.809h16.965v-16.809l-16.927-.038h0q-.02-8.4-.039-16.806h-5.682v-5.9a1.385,1.385,0,0,1,1.38-1.373h1.208v-26.455H229v-16.806h-3.09v-33.689h3.046v-16.806h-.083a34.453,34.453,0,0,1,16.684-16.938h.357v50.507H229.041v16.889H245.9v16.881H229.041v33.65l16.928.038q.018,8.4.039,16.806h16.927q.018-8.4.035-16.806,16.969,0,33.939-.012v-16.812H313.8v16.806h.008V-429.1h.088v-16.872h16.891v.018h16.993v33.689H330.792V-378.6H313.941v16.883h16.851v16.8H296.9v-33.646H262.97v16.8h16.966v16.841l16.928.04q.009,16.835.019,33.67" transform="translate(-110.266 547.026)" fill="#b7ced6"/>
        </g>
        <g id="g10" transform="translate(344.451 37.082)">
          <g id="g12" transform="translate(0)">
            <path id="path32" d="M294.556-389.647h.02v-.019h-.02Z" transform="translate(-195.784 389.666)"/>
            <path id="path48" d="M227.088-389.647h.02v-.019h-.02Z" transform="translate(-181.771 389.666)"/>
            <path id="path62" d="M185.06-181.415c-.027,0-.042-.076-.042-.233a4.377,4.377,0,0,1,.723-2.1,9.294,9.294,0,0,1-.681,2.327" transform="translate(-173.034 345.731)" fill="#74c6d9"/>
            <path id="path80" d="M294.556-389.647h.02v-.019h-.02Z" transform="translate(-195.784 389.666)"/>
            <path id="path96" d="M227.088-389.647h.02v-.019h-.02Z" transform="translate(-181.771 389.666)"/>
            <path id="path142" d="M180.212-230.913l-.028.147.222.712c-.131-.544-.194-.858-.194-.858" transform="translate(-172.029 355.796)" fill="#f1c799"/>
            <path id="path144" d="M170.615-183.743a4.376,4.376,0,0,0-.723,2.1c0,.684.275-.2.723-2.1" transform="translate(-169.892 345.731)" fill="#f1c799"/>
            <g id="Group_403" data-name="Group 403" transform="translate(37.705 18.381)">
              <path id="path66" d="M311.126-383.422h-86.09v-5.289H308.13V-515.551h3v132.129" transform="translate(-181.346 521.854)" fill="#61a6b6"/>
              <path id="path68" d="M307.774-388.713H224.68v-18.036h-.634a.724.724,0,0,1-.724-.719v-9.057h2.984v.019h.02v-.019h-.02v-8.812h.03v8.83h8.87v-8.83h.03V-434.2h8.889v8.845h8.909v8.845H226.326q-.006,4.418-.011,8.836h35.636q0-8.841-.01-17.681l-8.89-.02v-8.845h-8.909v-8.823h17.818v17.671h17.8v.02h.019v-.02h-.019v-8.825h-8.85v-8.867h8.849v.02h.02v-.02h-.02v-17.681h8.92v-17.691h-8.923v-.01h-8.869v8.862h-.047V-451.9h0v-8.826h-8.871v8.829q-8.912,0-17.822.007-.009,4.413-.019,8.826h-8.889q-.01-4.413-.02-8.826l-8.89-.02v-17.671h8.851v-8.865h-8.851v-8.869h8.86v-26.528H235a17.906,17.906,0,0,1,7.668-1.715h1.468v28.272h44.546v-28.272h19.094v126.84m-36.911-27.794v8.836h8.909q-.005-4.418-.01-8.836h-8.9m8.9-.019v.019h.02v-.019h-.02m8.919-8.836-8.9.01v8.826l8.9.01v-8.845m-26.737-.01v.02h.02v-.02h-.02m17.818-8.845v.019h.02v-.019h-.02m.02-8.827v8.827l8.9.009v-8.846h-.024v-8.856h-8.869v8.865h-.005m-35.656-8.865v.02h.019v-.02h-.019m-8.909,0v.02h.019v-.02h-.019m.019-8.786v8.786h8.891V-460.7h-8.891m8.933-17.689v8.806h8.9v8.8h8.851v-17.609H244.167m-8.953,44.17h-8.908v-8.827h-2.984v-8.845h2.984q.01,4.413.02,8.826h-.02v.02h.02v-.02h0l8.889.02v8.827M226.306-469.6H224.68v-8.826h1.625v8.826m-.025-26.517h-1.6v-1.58a17.588,17.588,0,0,1,1.556-7.246h.044v8.826m53.46-.047H253.1v-19.39H279.74v19.39m-17.751-17.6V-505h8.824v-8.76h-8.824" transform="translate(-180.99 521.853)" fill="#e5e5e5"/>
              <path id="path130" d="M185.707-127.756c-2.057,4.449-3.541,9.761-1.948,14.144,3.447,9.49,8.462,18.825,15.826,17.889s7.835-3.264,8.618-5.755-4.388-17.737-4.388-17.737v-4.674c-4.01-1.087-9.269-2.5-14.54-3.861a6.27,6.27,0,0,0-3.569-.007" transform="translate(-172.633 439.168)" fill="#f7d6b5"/>
              <path id="path132" d="M200.918-336.761s-2.82.622-8.462,2.178-22.564,4.356-22.564,10.268c0,5.893,2.493,21.829,27.179,21.164,1.393-.437,2.708-.822,3.848-1.141v-32.47" transform="translate(-169.892 483.706)" fill="#f7d6b5"/>
              <path id="path134" d="M179.071-241.179c.9,2.874,1.675,5.242,2.171,6.732,2.1,5.109,5.717,10.875,11.267,10.613a34.513,34.513,0,0,0,9.513-1.821c.007-.822.013-1.316.013-1.316s7.208-5.756,7.208-12.915-6.268-23.648-6.268-23.648a83.081,83.081,0,0,1-1.254-9.023v-6.765a98.844,98.844,0,0,1-10.623-3.32,7.012,7.012,0,0,0-3.16-.368c-7.339,6.969-15.675,16.727-13.953,23.833,1.436,5.928,3.308,12.289,4.863,17.287l.028-.147s.063.315.194.858" transform="translate(-170.695 472.247)" fill="#f7d6b5"/>
              <path id="path136" d="M190.223-199.6a38.234,38.234,0,0,0-14.469,7.966,21.374,21.374,0,0,0,.523,6.323c2.82,10.892,8.618,32.361,13.478,32.983l-.147.192c4.02,1.153,9.211.106,12.682-.9v-.069s9.089-6.38,6.581-17.737-6.268-18.515-6.426-21.005c-.059-.932-.073-3.613-.069-6.6-3.531-1.306-7.95-2.234-12.154-1.154" transform="translate(-171.106 454.543)" fill="#f7d6b5"/>
              <path id="path138" d="M194.816-285.3a98.833,98.833,0,0,0,10.623,3.32v-13.507c-1.14.32-2.454.7-3.848,1.141.082,0,.161,0,.244-.005a126.144,126.144,0,0,0-10.179,8.683,7.012,7.012,0,0,1,3.16.368" transform="translate(-174.412 474.9)" fill="#f1c799"/>
              <path id="path140" d="M192.925-210.653c-5.551.261-9.164-5.5-11.267-10.613.364,1.1.579,1.719.579,1.719s-5.964,12.795-6.477,23.392a38.262,38.262,0,0,1,14.469-7.966c4.2-1.081,8.623-.152,12.154,1.154.006-3.537.038-7.5.056-9.507a34.515,34.515,0,0,1-9.513,1.821" transform="translate(-171.111 459.065)" fill="#f1c799"/>
              <path id="path146" d="M191.82-139.377a51.584,51.584,0,0,0-5.427,9,6.27,6.27,0,0,1,3.569.007c5.27,1.365,10.53,2.773,14.54,3.861v-13.771c-3.472,1-8.663,2.052-12.683.9" transform="translate(-173.32 441.786)" fill="#f1c799"/>
              <path id="path148" d="M187.858-222.124S177.2-241,184.514-251.166s17.759,15.766,17.968,17.01c0,0-.418,1.452-2.716,1.865s-12.327,6.846-11.909,10.164" transform="translate(-172.397 465.948)" fill="#fcf0e4"/>
              <path id="path150" d="M188.285-183.416s-6.686,3.73-5.015,10.994S188.285-155,188.285-155s-.209,1.868,2.925-1.243a22.132,22.132,0,0,1,8.566-5.395c1.671-.413,4.6.208,2.925-6.224s-6.268-18.669-14.417-15.556" transform="translate(-172.615 451.096)" fill="#fcf0e4"/>
              <path id="path152" d="M188.587-113.774s2.113-3.527,5.652-3.322,7.3,12.862,7.3,12.862-2.3,1.454-4.388,3.114-2.925,4.357-3.97,4.15-5.432-8.921-4.6-16.8" transform="translate(-173.753 436.842)" fill="#fcf0e4"/>
              <path id="path156" d="M307.318-48.057c1.409-20.071,17.393-40.605,36.2-28s15.983,11.669,21.624,4.667,16.792-17.556,19.248-26.533v-.01a18.044,18.044,0,0,1-15.531,8.892H271.6C277.18-74.458,298.434-23.023,321.418-21H327.4c-9.586-5.871-20.912-15.351-20.089-27.052" transform="translate(-191.018 432.752)" fill="#f1c799"/>
              <path id="path158" d="M430.152-334.439c1.022,9.345,5.853,32.212,16.453,23.22a82.031,82.031,0,0,1-2.35-23.531s0-8.65-7.465-11.55c-3.116,1.958-7.308,5.764-6.638,11.861" transform="translate(-223.934 485.742)" fill="#fcf0e4"/>
              <path id="path160" d="M456.17-107.865a58.148,58.148,0,0,1-3.829-11.5q-.61-2.937-1.158-5.894c-4.961-26.573-6.605-54.144-9.379-80.926-1.691-16.333-4.268-32.741-5.047-49.144-.459-9.637-.166-19.5-2.827-28.873-2.693-9.477-8.483-17.57-10.89-27.268-10.6,8.993-15.431-13.874-16.453-23.22-.669-6.1,3.522-9.9,6.638-11.861a17.852,17.852,0,0,0-9.462-.586c-16.923,2.8-11.595,46.986-10.028,57.877a188.051,188.051,0,0,1,2.194,23.649c0,.886.261,10.568.261,23.441v82.027a17.594,17.594,0,0,1-2.454,8.965v.01c-2.456,8.978-13.607,19.532-19.248,26.533s-2.821,7.933-21.624-4.667-34.786,7.933-36.2,28c-.822,11.7,10.5,21.182,20.089,27.052h59.171v.053H451.2l23.97,10.315s-11.275-26.488-19-43.984" transform="translate(-200.369 485.995)" fill="#f7d6b5"/>
              <path id="path168" d="M357.2-320.536h.013v-.012H357.2v.012" transform="translate(-208.795 480.247)"/>
              <path id="path170" d="M342.755-313.314h.013v-.012h-.013v.012" transform="translate(-205.797 478.707)"/>
              <path id="path172" d="M357.209-313.314v-.013H357.2v.013h.012" transform="translate(-208.796 478.707)"/>
              <path id="path176" d="M357.2-306.094h.013v-.012H357.2v.012" transform="translate(-208.795 477.167)"/>
              <path id="path180" d="M357.209-327.756v-.012H357.2v.012h.013" transform="translate(-208.795 481.787)"/>
              <path id="path188" d="M321.108-334.986H321.1v.013h.012v-.013" transform="translate(-201.297 483.329)"/>
              <path id="path190" d="M328.315-334.973h.012v-.013h-.012v.013" transform="translate(-202.797 483.329)"/>
              <path id="path192" d="M313.875-306.106v.012h.013v-.012h-.013" transform="translate(-199.797 477.166)"/>
              <path id="path194" d="M313.882-327.761l.007.006v-.012h-.013v.012h.013l-.007-.006" transform="translate(-199.797 481.788)"/>
              <g id="g230" transform="translate(29.39 0)">
                <path id="path232" d="M474.786-783.207H595.039a25.685,25.685,0,0,1,25.774,25.589v293.656a25.684,25.684,0,0,1-25.771,25.59l-120.255,0a25.689,25.689,0,0,1-25.776-25.588V-757.615a25.689,25.689,0,0,1,25.771-25.593" transform="translate(-449.01 783.208)" fill="#333" fill-rule="evenodd"/>
              </g>
              <g id="g234" transform="translate(28.387 46.6)">
                <path id="path236" d="M447.291-646.044v23.363a.992.992,0,0,0,.294.7,1.006,1.006,0,0,0,.71.291,1.007,1.007,0,0,0,.709-.292.992.992,0,0,0,.294-.7v-23.363a.991.991,0,0,0-.294-.7,1.006,1.006,0,0,0-.71-.291,1.006,1.006,0,0,0-.71.291.992.992,0,0,0-.294.7ZM619.1-668.8v37.782a1,1,0,0,0,1,1,1,1,0,0,0,1-1V-668.8a.991.991,0,0,0-.294-.7,1.006,1.006,0,0,0-.709-.291,1,1,0,0,0-1,1Zm-171.8-8.744v23.366a1,1,0,0,0,1,1,1,1,0,0,0,1-1v-23.366a1,1,0,0,0-1-1,1,1,0,0,0-1,1Zm0-24.254v11.041a1,1,0,0,0,1,1,1,1,0,0,0,1-1V-701.8a1,1,0,0,0-1-1,1.006,1.006,0,0,0-.71.291.992.992,0,0,0-.294.7" transform="translate(-447.291 702.795)" fill="#333" fill-rule="evenodd"/>
              </g>
              <g id="g238" transform="translate(39.219 10.264)">
                <path id="path240" d="M601.563-765.5H585.481a2.022,2.022,0,0,0-2.029,2.013v1.645c0,2.8-2.558,8.2-8.423,8.2H508.007c-.066,0-.141,0-.211,0a8.524,8.524,0,0,1-8.538-8.032v-1.818a2.024,2.024,0,0,0-2.031-2.014h-16.32a15,15,0,0,0-15.053,14.947v295.015a14.154,14.154,0,0,0,14.2,14.1H602.413a14.147,14.147,0,0,0,14.188-14.1V-750.548a15,15,0,0,0-15.038-14.947h0" transform="translate(-465.852 765.496)" fill="#e8e8e8" fill-rule="evenodd"/>
                <g id="Group_405" data-name="Group 405" transform="translate(10.342 18.696)">
                  <g id="Component_1_1" data-name="Component 1 – 1" transform="translate(0 23.958)">
                    <rect id="Rectangle_1075" data-name="Rectangle 1075" width="47.431" height="35.436" rx="4.412" fill="#fafafa"/>
                    <rect id="Rectangle_1076" data-name="Rectangle 1076" width="69.033" height="4.196" rx="1.418" transform="translate(56.353 9.325)" fill="#fafafa"/>
                    <rect id="Rectangle_1077" data-name="Rectangle 1077" width="39.447" height="3.264" rx="1.103" transform="translate(56.353 17.252)" fill="#fafafa"/>
                    <rect id="Rectangle_1080" data-name="Rectangle 1080" width="49.309" height="3.264" rx="1.103" transform="translate(56.353 24.245)" fill="#fafafa"/>
                  </g>
                  <g id="Component_1_2" data-name="Component 1 – 2" transform="translate(0 78.977)">
                    <rect id="Rectangle_1075-2" data-name="Rectangle 1075" width="47.431" height="35.436" rx="4.412" fill="#fafafa"/>
                    <rect id="Rectangle_1076-2" data-name="Rectangle 1076" width="69.033" height="4.196" rx="1.418" transform="translate(56.353 9.325)" fill="#fafafa"/>
                    <rect id="Rectangle_1077-2" data-name="Rectangle 1077" width="39.447" height="3.264" rx="1.103" transform="translate(56.353 17.252)" fill="#fafafa"/>
                    <rect id="Rectangle_1080-2" data-name="Rectangle 1080" width="49.309" height="3.264" rx="1.103" transform="translate(56.353 24.245)" fill="#fafafa"/>
                  </g>
                  <g id="Component_1_3" data-name="Component 1 – 3" transform="translate(0 138.658)">
                    <rect id="Rectangle_1075-3" data-name="Rectangle 1075" width="47.431" height="35.436" rx="4.412" fill="#fafafa"/>
                    <rect id="Rectangle_1076-3" data-name="Rectangle 1076" width="69.033" height="4.196" rx="1.418" transform="translate(56.353 9.325)" fill="#fafafa"/>
                    <rect id="Rectangle_1077-3" data-name="Rectangle 1077" width="39.447" height="3.264" rx="1.103" transform="translate(56.353 17.252)" fill="#fafafa"/>
                    <rect id="Rectangle_1080-3" data-name="Rectangle 1080" width="49.309" height="3.264" rx="1.103" transform="translate(56.353 24.245)" fill="#fafafa"/>
                  </g>
                  <g id="Component_1_4" data-name="Component 1 – 4" transform="translate(0 193.676)">
                    <rect id="Rectangle_1075-4" data-name="Rectangle 1075" width="47.431" height="35.436" rx="4.412" fill="#fafafa"/>
                    <rect id="Rectangle_1076-4" data-name="Rectangle 1076" width="69.033" height="4.196" rx="1.418" transform="translate(56.353 9.325)" fill="#fafafa"/>
                    <rect id="Rectangle_1077-4" data-name="Rectangle 1077" width="39.447" height="3.264" rx="1.103" transform="translate(56.353 17.252)" fill="#fafafa"/>
                    <rect id="Rectangle_1080-4" data-name="Rectangle 1080" width="49.309" height="3.264" rx="1.103" transform="translate(56.353 24.245)" fill="#fafafa"/>
                  </g>
                  <g id="Component_1_5" data-name="Component 1 – 5" transform="translate(0 251.026)">
                    <rect id="Rectangle_1075-5" data-name="Rectangle 1075" width="47.431" height="35.436" rx="4.412" fill="#fafafa"/>
                    <rect id="Rectangle_1076-5" data-name="Rectangle 1076" width="69.033" height="4.196" rx="1.418" transform="translate(56.353 9.325)" fill="#fafafa"/>
                    <rect id="Rectangle_1077-5" data-name="Rectangle 1077" width="39.447" height="3.264" rx="1.103" transform="translate(56.353 17.252)" fill="#fafafa"/>
                    <rect id="Rectangle_1080-5" data-name="Rectangle 1080" width="49.309" height="3.264" rx="1.103" transform="translate(56.353 24.245)" fill="#fafafa"/>
                  </g>
                  <text id="MENU" transform="translate(43.919 16)" fill="#312e2e" font-size="15" font-family="Poppins-SemiBold, Poppins" font-weight="600"><tspan x="0" y="0">MENU</tspan></text>
                </g>
              </g>
            </g>
          </g>
        </g>
      </g>
    </g>
  </g>
</svg>
