<?xml version="1.0" encoding="UTF-8"?>
<!DOCTYPE svg PUBLIC "-//W3C//DTD SVG 1.1//EN" "http://www.w3.org/Graphics/SVG/1.1/DTD/svg11.dtd">
<!-- Creator: CorelDRAW 2018 (64 Bit) -->
<svg xmlns="http://www.w3.org/2000/svg" xml:space="preserve" width="62.4308mm" height="128.959mm" version="1.1" style="shape-rendering:geometricPrecision; text-rendering:geometricPrecision; image-rendering:optimizeQuality; fill-rule:evenodd; clip-rule:evenodd"
viewBox="0 0 715.35 1477.65"
 xmlns:xlink="http://www.w3.org/1999/xlink">
 <defs>
  <style type="text/css">
   <![CDATA[
    .fil0 {fill:#062C6E;fill-rule:nonzero}
   ]]>
  </style>
 </defs>
 <g id="Capa_x0020_1">
  <metadata id="CorelCorpID_0Corel-Layer"/>
  <path class="fil0" d="M393.52 252.34c0.04,-10.13 8.29,-18.32 18.42,-18.28 10.13,0.04 18.32,8.29 18.28,18.42 -0.16,36.56 -0.43,65.03 -0.68,91.06 -0.47,49.62 -0.85,90.41 -0.27,160.39 0.27,33.38 5.9,54.95 14.09,65.01 1.73,2.13 3.18,3.26 4.26,3.37 1.31,0.13 3.26,-0.75 5.77,-2.66 11.39,-8.67 23.2,-30.1 32.23,-64.88 2.99,-11.54 6.79,-23.16 11.19,-34 4.28,-10.52 9.24,-20.64 14.74,-29.64 15.38,-25.16 33.64,-44.1 51.44,-62.57 36.49,-37.85 70.82,-73.47 61.33,-160.28 -6.08,-55.55 -32.92,-99.92 -70.38,-130.81 -23.04,-19 -50.1,-32.97 -78.85,-41.38 -28.81,-8.43 -59.33,-11.27 -89.23,-8 -50.09,5.48 -98.32,28.28 -133.47,70.9 -101.55,123.15 -18.84,246.74 -12.84,255.36 7.29,8.59 58.23,70.95 66.73,146.28 1.64,14.48 2.56,25.53 3.33,34.86 2.86,34.37 3.34,40.13 33.29,53.6 15.46,6.96 30.91,13.54 46.12,20.03 59.78,25.49 116.43,49.64 116.45,76.33 0.02,22.26 -33.94,36.09 -126.04,36.18 -30.91,0.03 -51.1,3.55 -62.07,9.05 -1.51,0.75 -2.67,1.45 -3.49,2.08 10.24,17.35 58.77,23.77 101.72,29.45l10.81 1.44c79.84,10.78 79.65,13.49 76.15,63.13 -0.64,9.08 -1.45,20.56 -1.18,34.19 0.2,10.13 -7.86,18.51 -17.99,18.71 -10.13,0.2 -18.51,-7.86 -18.71,-17.99 -0.33,-16.2 0.51,-28.09 1.18,-37.5 1.2,-17.04 1.26,-17.97 -44.34,-24.13l-10.66 -1.43c-52.77,-6.97 -112.5,-14.87 -130.29,-50.38 -2.66,-5.31 -4.02,-10.77 -4.03,-16.28 -0.01,-7.57 2.44,-14.64 7.46,-20.98l0.04 0.03c4.01,-5.05 9.65,-9.5 16.94,-13.15 15.7,-7.86 41.5,-12.9 78.48,-12.93 65.26,-0.06 89.34,0.89 89.34,0.52 0,-2.37 -45.8,-21.9 -94.14,-42.51 -16.07,-6.85 -32.41,-13.82 -46.84,-20.31 -49.75,-22.38 -50.48,-31.25 -54.88,-84.12 -0.81,-9.76 -1.77,-21.3 -3.19,-33.85 -7.36,-65.18 -52.36,-119.74 -58.09,-126.46 -0.65,-0.68 -1.26,-1.41 -1.82,-2.2 -0.31,-0.44 -108.95,-150.96 14.22,-300.32 41.74,-50.62 98.79,-77.68 157.94,-84.15 34.57,-3.78 69.92,-0.48 103.33,9.3 33.48,9.79 65.03,26.1 91.94,48.29 44.53,36.71 76.42,89.39 83.62,155.28 11.35,103.8 -28.76,145.41 -71.4,189.65 -16.42,17.03 -33.27,34.51 -46.55,56.24 -4.34,7.1 -8.39,15.42 -12,24.31 -3.94,9.71 -7.25,19.75 -9.75,29.39 -11.25,43.33 -28.12,71.68 -45.47,84.89 -10.25,7.8 -21.08,11.12 -31.82,10 -10.97,-1.14 -20.87,-6.75 -29.02,-16.76 -13.03,-16.02 -21.94,-45.55 -22.29,-87.9 -0.58,-70.29 -0.2,-111.2 0.27,-160.97 0.25,-26.09 0.52,-54.62 0.68,-90.91z"/>
  <path class="fil0" d="M412.34 147.42c13.18,0 25.13,5.36 33.8,14.02l0.04 0c8.66,8.66 14.02,20.62 14.02,33.84 0,13.21 -5.36,25.18 -14.02,33.83l-0.04 0c-8.66,8.66 -20.62,14.02 -33.8,14.02 -13.21,0 -25.18,-5.36 -33.83,-14.02 -8.66,-8.66 -14.02,-20.62 -14.02,-33.83 0,-13.18 5.36,-25.13 14.02,-33.8l0 -0.04c8.66,-8.66 20.62,-14.02 33.83,-14.02zm18.82 29.04c-4.8,-4.8 -11.46,-7.78 -18.82,-7.78 -7.34,0 -14,2.98 -18.8,7.79 -4.82,4.79 -7.79,11.45 -7.79,18.81 0,7.34 2.98,14 7.79,18.8 4.81,4.81 11.46,7.79 18.8,7.79 7.36,0 14.02,-2.97 18.83,-7.77 4.79,-4.83 7.77,-11.48 7.77,-18.82 0,-7.35 -2.98,-14 -7.78,-18.82z"/>
  <path class="fil0" d="M207.34 931.21c53.57,0 104.73,10.17 155.88,20.33 97.73,19.42 195.47,38.84 304.09,-18.34 2.97,-1.56 6.19,-2.16 9.3,-1.9l0 -0.03c15.87,1.33 25.92,8.73 32.12,20.13 5.02,9.23 6.64,20.48 6.62,32.7 -0.07,30.75 -3.52,65 -9.26,98.77 -6.12,36.03 -14.84,71.78 -24.83,102.43 -20.13,61.79 -50.2,131.58 -93.89,187.39 -45,57.48 -104.19,100.05 -181.51,104.62 -49.7,2.94 -91.8,-13.64 -127.83,-40.34 -32.6,-24.15 -59.93,-56.48 -83.3,-89.79 -35.3,-2.94 -68.78,-19 -97.71,-42.74 -28.96,-23.76 -53.47,-55.34 -70.56,-88.98 -17.25,-33.96 -27.06,-70.36 -26.44,-103.37 0.53,-27.49 8.21,-52.76 24.65,-72.8 6.81,-8.31 14.22,-15.58 23.05,-20.82 9.69,-5.74 20.66,-8.88 33.68,-8.17 1.14,0.06 2.27,0.16 3.39,0.28 -1.43,-14.75 -1.14,-27.62 1.13,-38.37 4.83,-22.76 17.46,-36.83 39.61,-40.51 14.58,-2.42 39,-1.64 59.8,-0.98 7.43,0.24 14.32,0.46 21.99,0.46zm149.37 53.68c-49.48,-9.83 -98.97,-19.67 -149.37,-19.67 -4.66,0 -13.51,-0.29 -23.06,-0.59 -19.21,-0.62 -41.79,-1.33 -53.28,0.57 -6.33,1.05 -10.13,5.95 -11.85,14.07 -2.73,12.89 -1.17,31.74 3.75,55.38 1.49,5.88 -0.23,12.37 -5.03,16.74 -6.93,6.31 -17.67,5.8 -23.98,-1.13 -1.52,-1.67 -3.5,-3.06 -5.77,-4.07 -2.53,-1.13 -5.44,-1.82 -8.57,-1.99 -5.64,-0.31 -10.38,1.04 -14.55,3.51 -5.02,2.97 -9.65,7.62 -14.15,13.11 -11.28,13.74 -16.56,31.78 -16.95,51.81 -0.52,27.39 7.96,58.26 22.85,87.56 15.05,29.63 36.53,57.35 61.79,78.08 25.57,20.98 54.86,34.66 84.89,35.47 5.6,-0.17 11.16,2.43 14.54,7.4 22.62,33.11 49.03,65.47 80.25,88.6 30.04,22.26 64.9,36.1 105.64,33.69 66.05,-3.9 117.34,-41.2 156.8,-91.6 40.76,-52.07 69.14,-118.21 88.31,-177.03 9.5,-29.16 17.8,-63.2 23.63,-97.51 5.49,-32.31 8.79,-64.67 8.86,-93.19 0.01,-7.08 -0.59,-13 -2.49,-16.49 -0.31,-0.58 -0.8,-1.08 -1.48,-1.47 -116.95,59.26 -218.87,39 -320.78,18.75z"/>
  <path class="fil0" d="M152.36 1095.2c6.07,30.08 12.67,59.33 22.29,88.18 9.49,28.48 22.01,56.79 40.05,85.5 4.15,6.6 2.17,15.33 -4.43,19.49 -4.2,2.64 -9.25,2.8 -13.45,0.87 -49.29,-22.73 -83.37,-48.14 -104.97,-76.68 -22.31,-29.48 -31.24,-61.9 -29.7,-97.8l0.02 -0.49c0.77,-18.33 0.97,-22.87 19.41,-33.49 9.86,-5.69 20.54,-7.72 31.6,-6.62 10.78,1.07 21.81,5.17 32.65,11.74 3.52,2.13 5.78,5.56 6.53,9.3zm-4.51 97.04c-9.38,-28.14 -15.95,-56.31 -21.86,-85.09 -5.41,-2.7 -10.64,-4.37 -15.57,-4.86 -5.29,-0.52 -10.3,0.38 -14.78,2.96 -4.93,2.84 -5,4.29 -5.24,10.13l-0.02 0.49c-1.25,29.34 5.98,55.75 24.06,79.65 12.37,16.35 29.86,31.7 53.18,46.2 -7.81,-16.49 -14.26,-32.94 -19.77,-49.46z"/>
  <path class="fil0" d="M518.06 249.94c13.21,0 25.18,5.36 33.83,14.02l0 0.04c8.66,8.66 14.02,20.62 14.02,33.8 0,13.21 -5.36,25.18 -14.02,33.83 -8.66,8.66 -20.62,14.02 -33.83,14.02 -13.18,0 -25.13,-5.36 -33.8,-14.02l-0.04 0c-8.66,-8.66 -14.02,-20.62 -14.02,-33.83 0,-13.21 5.36,-25.18 14.02,-33.84 8.66,-8.66 20.62,-14.02 33.84,-14.02zm18.82 29.03c-4.83,-4.79 -11.48,-7.77 -18.82,-7.77 -7.35,0 -14,2.98 -18.81,7.79 -4.81,4.81 -7.79,11.46 -7.79,18.81 0,7.34 2.98,14 7.79,18.81 4.79,4.82 11.45,7.79 18.81,7.79 7.34,0 14,-2.98 18.8,-7.79 4.81,-4.81 7.79,-11.46 7.79,-18.81 0,-7.36 -2.97,-14.02 -7.77,-18.83z"/>
  <path class="fil0" d="M308.59 249.94c13.18,0 25.13,5.36 33.8,14.02l0.04 0c8.66,8.66 14.02,20.62 14.02,33.84 0,13.21 -5.36,25.18 -14.02,33.83l-0.04 0c-8.66,8.66 -20.62,14.02 -33.8,14.02 -13.21,0 -25.18,-5.36 -33.83,-14.02 -8.66,-8.66 -14.02,-20.62 -14.02,-33.83 0,-13.18 5.36,-25.13 14.02,-33.8l0 -0.04c8.66,-8.66 20.62,-14.02 33.83,-14.02zm18.82 29.03c-4.8,-4.8 -11.46,-7.78 -18.82,-7.78 -7.34,0 -14,2.98 -18.8,7.79 -4.82,4.79 -7.79,11.45 -7.79,18.81 0,7.34 2.98,14 7.79,18.81 4.81,4.81 11.46,7.79 18.8,7.79 7.36,0 14.02,-2.97 18.83,-7.77 4.79,-4.83 7.77,-11.48 7.77,-18.82 0,-7.35 -2.98,-14 -7.78,-18.82z"/>
 </g>
</svg>
