<svg xmlns="http://www.w3.org/2000/svg" xmlns:xlink="http://www.w3.org/1999/xlink" width="82" height="75" viewBox="0 0 82 75">
  <defs>
    <clipPath id="clip-path">
      <rect id="Rectángulo_10678" data-name="Rectángulo 10678" width="82" height="75" transform="translate(960 1719)" fill="#fff" stroke="#707070" stroke-width="1"/>
    </clipPath>
  </defs>
  <g id="Enmascarar_grupo_4" data-name="Enmascarar grupo 4" transform="translate(-960 -1719)" clip-path="url(#clip-path)">
    <g id="www" transform="translate(960 1719.745)">
      <path id="Trazado_1581" data-name="Trazado 1581" d="M67.906,32.432h7.688a4.8,4.8,0,0,0,4.8-4.8V6.486a4.8,4.8,0,0,0-4.8-4.8H6.406a4.8,4.8,0,0,0-4.8,4.8V27.627a4.8,4.8,0,0,0,4.8,4.8Zm0,0" fill="#fff"/>
      <path id="Trazado_1582" data-name="Trazado 1582" d="M60.554,57.4,73.861,70.708a3.829,3.829,0,0,0,5.415-5.415L65.969,51.986Zm0,0" fill="#102733"/>
      <path id="Trazado_1583" data-name="Trazado 1583" d="M68.868,41.08A19.219,19.219,0,1,1,49.649,21.861,19.219,19.219,0,0,1,68.868,41.08Zm0,0" fill="#fff"/>
      <path id="Trazado_1584" data-name="Trazado 1584" d="M62.141,41.08A12.492,12.492,0,1,1,49.649,28.588,12.492,12.492,0,0,1,62.141,41.08Zm0,0" fill="#e2edf1"/>
      <path id="Trazado_1585" data-name="Trazado 1585" d="M49.649,26.986A14.094,14.094,0,1,0,63.743,41.08,14.11,14.11,0,0,0,49.649,26.986Zm0,24.984A10.891,10.891,0,1,1,60.54,41.08,10.9,10.9,0,0,1,49.649,51.971Zm0,0" fill="#ef4c00"/>
      <path id="Trazado_1586" data-name="Trazado 1586" d="M49.649,33.874a1.6,1.6,0,0,0,0,3.2,4.008,4.008,0,0,1,4,4,1.6,1.6,0,0,0,3.2,0A7.214,7.214,0,0,0,49.649,33.874Zm0,0" fill="#102733"/>
      <path id="Trazado_1587" data-name="Trazado 1587" d="M9.873,12.156a1.6,1.6,0,1,0-2.845,1.473l4.311,8.328a1.6,1.6,0,0,0,2.866-.043l2.61-5.434,2.835,5.477a1.6,1.6,0,0,0,1.423.865H21.1a1.6,1.6,0,0,0,1.42-.908l4-8.328A1.6,1.6,0,1,0,23.629,12.2l-2.61,5.434-2.835-5.477a1.6,1.6,0,0,0-2.866.043l-2.609,5.434Zm0,0" fill="#ef4c00"/>
      <path id="Trazado_1588" data-name="Trazado 1588" d="M20.178,3.283A1.6,1.6,0,0,0,21.31.549a1.6,1.6,0,0,0-2.734,1.132,1.6,1.6,0,0,0,1.6,1.6Zm0,0" fill="#ef4c00"/>
      <path id="Trazado_1589" data-name="Trazado 1589" d="M82,27.627V6.486A6.414,6.414,0,0,0,75.594.08H26.9a1.6,1.6,0,0,0,0,3.2H75.594a3.207,3.207,0,0,1,3.2,3.2V27.627a3.207,3.207,0,0,1-3.2,3.2H67.906c-.046,0-.091,0-.136.007a20.931,20.931,0,0,0-11.258-9.414l2.374-4.943,2.835,5.477a1.6,1.6,0,0,0,1.422.865h.024a1.6,1.6,0,0,0,1.42-.908l4-8.328A1.6,1.6,0,0,0,65.7,12.2L63.09,17.633l-2.835-5.477a1.6,1.6,0,0,0-2.866.043l-2.61,5.434-2.835-5.477A1.6,1.6,0,0,0,49.1,13.629l3.545,6.847a20.852,20.852,0,0,0-8.676.572l3.584-7.462A1.6,1.6,0,0,0,44.665,12.2l-2.61,5.434-2.835-5.477a1.6,1.6,0,0,0-2.866.043l-2.609,5.434-2.835-5.477a1.6,1.6,0,0,0-2.845,1.473l4.311,8.328a1.6,1.6,0,0,0,2.866-.043l2.61-5.433,2.835,5.477a1.564,1.564,0,0,0,.169.255,20.96,20.96,0,0,0-9.322,8.618H6.406a3.207,3.207,0,0,1-3.2-3.2V6.486a3.207,3.207,0,0,1,3.2-3.2h6.565a1.6,1.6,0,1,0,0-3.2H6.406A6.414,6.414,0,0,0,0,6.486V27.627a6.413,6.413,0,0,0,6.406,6.406H30.057a20.816,20.816,0,0,0,29.96,25.1L72.729,71.841a5.431,5.431,0,0,0,7.68-7.681l-4.994-4.994a1.6,1.6,0,0,0-2.265,2.265l4.994,4.995a2.228,2.228,0,0,1-3.15,3.151L62.7,57.286a20.8,20.8,0,0,0,6.536-23.253h6.353A6.413,6.413,0,0,0,82,27.627ZM49.649,58.7A17.617,17.617,0,1,1,67.266,41.08,17.638,17.638,0,0,1,49.649,58.7Zm0,0" fill="#ef4c00"/>
      <path id="Trazado_1590" data-name="Trazado 1590" d="M69.351,55.368a1.6,1.6,0,1,0,1.132-.469A1.613,1.613,0,0,0,69.351,55.368Zm0,0" fill="#ef4c00"/>
    </g>
  </g>
</svg>
